<svg id="Component_8_2" data-name="Component 8 – 2" xmlns="http://www.w3.org/2000/svg" width="14.99" height="12.122" viewBox="0 0 14.99 12.122">
  <path id="Path_95" data-name="Path 95" d="M131.012,58.488h2.648V55.781h1.592v2.708H137.9V46.366h-6.887Zm3.927-10.694h1.592v1.592h-1.592Zm0,2.558h1.592v1.592h-1.592Zm0,2.558h1.592V54.5h-1.592Zm-2.558-5.116h1.592v1.592h-1.592Zm0,2.558h1.592v1.592h-1.592Zm0,2.558h1.592V54.5h-1.592Z" transform="translate(-126.961 -46.366)" fill="#375aa8"/>
  <path id="Path_96" data-name="Path 96" d="M373.719,81.482v8.571h1.022v2.465h2.411V81.482Zm2.187,7.407h-1.449V87.44h1.449Zm0-2.329h-1.449V85.111h1.449Zm0-2.329h-1.449V82.783h1.449Z" transform="translate(-362.162 -80.396)" fill="#375aa8"/>
  <path id="Path_97" data-name="Path 97" d="M0,92.518H2.411V90.053H3.433V81.482H0Zm1.246-9.736H2.7v1.449H1.246Zm0,2.329H2.7V86.56H1.246Zm0,2.329H2.7v1.449H1.246Z" transform="translate(0 -80.396)" fill="#375aa8"/>
</svg>
