<svg id="Component_5_2" data-name="Component 5 – 2" xmlns="http://www.w3.org/2000/svg" width="16.386" height="13.006" viewBox="0 0 16.386 13.006">
  <path id="Path_118" data-name="Path 118" d="M57.123,315.792H56.49a.184.184,0,0,0-.186.2v.975a.184.184,0,0,0,.186.2h.633a.184.184,0,0,0,.186-.2V316A.184.184,0,0,0,57.123,315.792Z" transform="translate(-54.591 -307.744)" fill="#375aa8"/>
  <path id="Path_119" data-name="Path 119" d="M57.123,372.1H56.49a.184.184,0,0,0-.186.2v.976a.184.184,0,0,0,.186.2h.633a.184.184,0,0,0,.186-.2V372.3A.184.184,0,0,0,57.123,372.1Z" transform="translate(-54.591 -362.18)" fill="#375aa8"/>
  <path id="Path_120" data-name="Path 120" d="M99.963,315.792H99.33a.184.184,0,0,0-.186.2v.975a.184.184,0,0,0,.186.2h.633a.184.184,0,0,0,.186-.2V316A.184.184,0,0,0,99.963,315.792Z" transform="translate(-96.127 -307.744)" fill="#375aa8"/>
  <path id="Path_121" data-name="Path 121" d="M99.963,372.1H99.33a.184.184,0,0,0-.186.2v.976a.184.184,0,0,0,.186.2h.633a.184.184,0,0,0,.186-.2V372.3A.184.184,0,0,0,99.963,372.1Z" transform="translate(-96.127 -362.18)" fill="#375aa8"/>
  <path id="Path_122" data-name="Path 122" d="M406.553,315.951h.633a.184.184,0,0,0,.186-.2v-.975a.184.184,0,0,0-.186-.2h-.633a.184.184,0,0,0-.186.2v.975A.184.184,0,0,0,406.553,315.951Z" transform="translate(-394.003 -306.562)" fill="#375aa8"/>
  <path id="Path_123" data-name="Path 123" d="M406.553,372.254h.633a.184.184,0,0,0,.186-.2v-.975a.184.184,0,0,0-.186-.2h-.633a.184.184,0,0,0-.186.2v.975A.184.184,0,0,0,406.553,372.254Z" transform="translate(-394.003 -360.995)" fill="#375aa8"/>
  <path id="Path_124" data-name="Path 124" d="M449.393,315.951h.633a.184.184,0,0,0,.186-.2v-.975a.184.184,0,0,0-.186-.2h-.633a.184.184,0,0,0-.186.2v.975A.184.184,0,0,0,449.393,315.951Z" transform="translate(-435.539 -306.562)" fill="#375aa8"/>
  <path id="Path_125" data-name="Path 125" d="M449.393,372.254h.633a.184.184,0,0,0,.186-.2v-.975a.184.184,0,0,0-.186-.2h-.633a.184.184,0,0,0-.186.2v.975A.184.184,0,0,0,449.393,372.254Z" transform="translate(-435.539 -360.995)" fill="#375aa8"/>
  <path id="Path_126" data-name="Path 126" d="M15.828,77.748H9.31l-.559-.528v-.732h2.011a.6.6,0,0,0,.559-.61V74.537a.6.6,0,0,0-.559-.61H8.752a.575.575,0,0,0-.559-.488.6.6,0,0,0-.559.61v3.17l-.559.528H.559a.6.6,0,0,0-.559.61v1.91H0v5.568a.6.6,0,0,0,.559.61H15.828a.6.6,0,0,0,.559-.61V80.268h0v-1.91A.6.6,0,0,0,15.828,77.748Zm-14.71,3.13H4.655v4.349H1.117Zm8.007.406H7.262a.6.6,0,0,0-.559.61v3.373H5.772V80.553l2.421-2.276,2.421,2.276v4.715H9.683V81.894A.575.575,0,0,0,9.124,81.284Zm6.145,3.983H11.731v-4.39h3.538Z" transform="translate(0 -73.44)" fill="#375aa8"/>
</svg>
