<svg xmlns="http://www.w3.org/2000/svg" width="12.749" height="17.22" viewBox="0 0 12.749 17.22"><defs><style>.a{fill:#4a4a4a;}.b{fill:#fff;}</style></defs><g transform="translate(-50.814 -1.95)"><g transform="translate(50.814 1.95)"><g transform="translate(0 0)"><path class="a" d="M59.945,3.564a1.4,1.4,0,0,1-1.007-.413,1.365,1.365,0,0,1-.418-.994V0H49.894A.487.487,0,0,0,49.4.488V16.732a.5.5,0,0,0,.494.488H61.655a.5.5,0,0,0,.494-.488V3.564Zm-.893,5.609L56.43,12.362l-.095.094a.872.872,0,0,1-1.235-.113L52.516,9.192a.832.832,0,0,1,.019-1.144c.3-.3.7-.244,1.159-.244V5.665a1.084,1.084,0,0,1,.342-.788,1.145,1.145,0,0,1,.8-.338h1.843a1.145,1.145,0,0,1,.8.338,1.116,1.116,0,0,1,.342.788V7.822a2.632,2.632,0,0,1,.855.056A.829.829,0,0,1,59.052,9.173Z" transform="translate(-49.4)"/><path class="a" d="M259.658,14.861h1.782L259,12.4v1.8a.652.652,0,0,0,.658.658Z" transform="translate(-248.928 -12.37)"/><rect class="a" width="9.45" height="12.601" rx="3" transform="translate(0.622 3.436)"/><path class="b" d="M132.106,117.646v-2.906a.341.341,0,0,0-.106-.233l-.233-.106h-2.058a.365.365,0,0,0-.339.339v2.885a.457.457,0,0,1-.467.467h-1.1v.021l1.464,1.824,1.464,1.824h.021l1.464-1.824,1.464-1.824h-1.1A.471.471,0,0,1,132.106,117.646Z" transform="translate(-124.077 -108.333)"/></g></g></g></svg>