<svg id="Layer_1" data-name="Layer 1" xmlns="http://www.w3.org/2000/svg" viewBox="0 0 256 256"><defs><style>.cls-1{fill:#6d6e71;}.cls-2{font-size:8px;fill:#295c49;font-family:Montserrat-Bold, Montserrat;font-weight:700;}.cls-3{fill:#00a79d;}</style></defs><path class="cls-1" d="M95.58,30.67H14.72l.62.62V15l-.62.63H95.58L95,15V31.29a.63.63,0,0,0,1.25,0V15a.62.62,0,0,0-.62-.62H14.72a.63.63,0,0,0-.63.62V31.29a.64.64,0,0,0,.63.63H95.58A.63.63,0,0,0,95.58,30.67Z"/><text class="cls-2" transform="translate(19.9 25.52) scale(0.99 1)">INTEGRATED LAB</text><path class="cls-3" d="M44.06,242.54H111.4c4.78,0,9.6.15,14.38,0,2.29-.07,3.09-1.84,3.09-3.8V147.85a10.44,10.44,0,0,0-.23-3.66,3.05,3.05,0,0,0-4.92-.84c-.92,1-.77,2.34-.77,3.57v16.51l.63-.62H99.73l.62.63V147l-.31.54a7.47,7.47,0,0,0,1.23-13,8.54,8.54,0,0,0-5-1.24h-10l.63.62V71.16A16.55,16.55,0,0,1,87,67.64c.56-2.44,2.71-2.91,4.79-2.91h85.6c1,0,2.1,0,3.15,0a3.83,3.83,0,0,1,3.69,2.59c.46,1.42.18,3.26.18,4.72V76.1l.62-.62h-4.35c-1.31,0-3.13-.29-4.32.38-1.65.92-1.52,2.65-1.52,4.26v4.54l.63-.62a11,11,0,0,0-3,.12A3,3,0,0,0,170.38,87c-.07,1.69,0,3.39,0,5.08,0,2,0,3.94,0,5.9a3.15,3.15,0,0,0,1.12,2.48c.94.76,2.09.66,3.23.66l-.63-.63v57l.46-.6a41.43,41.43,0,0,0-11.92,71.87l.13-1a8.23,8.23,0,0,0-2.13,10.9,8.35,8.35,0,0,0,7.14,3.83c3.59,0,7.18,0,10.77,0H208a8.57,8.57,0,0,0,6.93-3,8.23,8.23,0,0,0-1.62-11.78l.13,1a41.89,41.89,0,0,0,16-33.53,43,43,0,0,0-.49-5.55c-.29-1.88-.91-3.67-1.28-5.53a7.06,7.06,0,0,1,0-1.38V150.59c0-5.76.85-12.22-2.75-17.15a14.72,14.72,0,0,0-12.06-6H201.25l.62.63V100.49l-.62.63c1.14,0,2.29.1,3.23-.66A3.11,3.11,0,0,0,205.59,98c.06-2,0-3.94,0-5.9,0-1.69.08-3.39,0-5.08a3,3,0,0,0-2.11-2.84,11,11,0,0,0-3-.12l.63.62v-5c0-1.82-.27-3.78-2.45-4.17a24.52,24.52,0,0,0-4.37,0h-4.6l.62.62V71.42a24.26,24.26,0,0,0-.21-5,9.8,9.8,0,0,0-9.53-7.64c-3.49,0-7,0-10.47,0H100.31c-3.21,0-6.42-.05-9.63,0A9.79,9.79,0,0,0,81,68.13c-.05,1.13,0,2.28,0,3.42V134l.63-.62H72.38a9.82,9.82,0,0,0-4.69.82,7.41,7.41,0,0,0,.52,13.41L67.9,147v16.42l.63-.63H46.39l.62.63V150.22c0-1.6.07-3.22,0-4.82a3,3,0,0,0-5.08-2.12c-1.21,1.2-.83,3.6-.83,5.16v75.77c0,5.1-.24,10.27,0,15.37a3,3,0,0,0,3,3c.8.06.79-1.19,0-1.25-2.3-.17-1.71-3.46-1.71-5V163.72c0-5.95-.05-11.91,0-17.87,0-1.09.38-2.16,1.71-2.16,2.09,0,1.7,2.46,1.7,3.86v15.89a.63.63,0,0,0,.63.62H68.53a.63.63,0,0,0,.62-.62V147a.61.61,0,0,0-.31-.54,6.24,6.24,0,0,1-3.19-8.64,6.48,6.48,0,0,1,6.07-3.26h9.91a.64.64,0,0,0,.62-.63V69.78c0-2.69.45-5.24,2.47-7.25,3.13-3.13,7.8-2.47,11.84-2.47h82.35a14.57,14.57,0,0,1,4.11.34,8.49,8.49,0,0,1,5.86,6.21,24.22,24.22,0,0,1,.2,5.18V76.1a.64.64,0,0,0,.63.63c2.76,0,5.56-.14,8.31,0,2.14.11,1.86,2.09,1.86,3.62v4.31a.63.63,0,0,0,.62.63c.7,0,1.42-.06,2.12,0,1.23.09,1.69,1,1.72,2,0,1.58,0,3.17,0,4.75v5.27a4.86,4.86,0,0,1-.07,1.32c-.44,1.39-1.89,1.2-3,1.2a.63.63,0,0,0-.63.62v27.63a.64.64,0,0,0,.63.62h9.24c1.12,0,2.24,0,3.35,0a13.14,13.14,0,0,1,8,3.28,13.57,13.57,0,0,1,4.45,10.39V181.3c0,.77,0,1.55,0,2.32,0,1.53.75,3.06,1,4.56a40.7,40.7,0,0,1-14.83,39.68c-.35.27-.15.76.13,1a7,7,0,0,1-.09,11.19,8,8,0,0,1-4.81,1.26H169.32a12.61,12.61,0,0,1-3.73-.29,7,7,0,0,1-2.19-12.11c.28-.21.48-.7.13-1a40.15,40.15,0,0,1,11.37-69.78.63.63,0,0,0,.45-.6v-57a.62.62,0,0,0-.62-.62c-1.07,0-2.35.19-2.91-1a3.49,3.49,0,0,1-.19-1.54V92.08c0-1.58,0-3.17,0-4.75.08-2.3,2.13-2,3.85-2a.64.64,0,0,0,.62-.63V80.82c0-1.5-.42-3.92,1.71-4.09,2.38-.19,4.85,0,7.23,0a.64.64,0,0,0,.63-.63V71.79a18,18,0,0,0-.18-4.64c-.71-2.58-3.05-3.67-5.51-3.67H100.23c-3.17,0-6.34-.09-9.51,0a5.1,5.1,0,0,0-5,5.27c0,1.52,0,3,0,4.57V134a.63.63,0,0,0,.62.63H96.43c2.42,0,4.67.78,6,3a6.24,6.24,0,0,1-3,8.94.63.63,0,0,0-.31.54v16.42a.64.64,0,0,0,.63.62h23.85a.63.63,0,0,0,.62-.63v-16.2c0-1.12-.29-2.83,1-3.38a1.74,1.74,0,0,1,2.46,1.74c0,.48,0,.95,0,1.43v90c0,1.06.32,2.95-.52,3.77s-2.94.52-4.08.52h-79A.63.63,0,0,0,44.06,242.54Z"/><path class="cls-3" d="M210.17,236c-1.3,1.14-4,.65-5.63.65H171.28c-1.55,0-4.61.53-5.61-1a2.26,2.26,0,0,1,1.88-3.44h36c1.66,0,3.35-.09,5,0a2.31,2.31,0,0,1,1.47.56,2.15,2.15,0,0,1,.74,1.39c0,.19-.21,1.67-.17,1.67a.63.63,0,0,0,0,1.25c1.13,0,1.51-2.2,1.43-3a3.51,3.51,0,0,0-2.29-2.91,6.81,6.81,0,0,0-2.25-.2H172.65a46.2,46.2,0,0,0-5.52,0,3.5,3.5,0,0,0-2.15,5.79,4,4,0,0,0,3.15,1.13h21.55c6.27,0,12.59.24,18.86,0a3.74,3.74,0,0,0,2.51-1C211.65,236.32,210.77,235.44,210.17,236Z"/><path class="cls-3" d="M223.46,196.09a36.06,36.06,0,0,1-12.79,27.26,35.16,35.16,0,0,1-3,2.27,4.36,4.36,0,0,1-.94.64,6.84,6.84,0,0,1-1.5,0H171.62c-.66,0-1.34,0-2,0-.84,0-1.32-.65-2.06-1.17a35.85,35.85,0,0,1-15-30.17l-.79.6c3.51.86,5.66,3.91,8.51,5.89a14.2,14.2,0,0,0,4.21,2,10.57,10.57,0,0,0,5.22.44,3,3,0,0,0,1.34-4.8c-1-1.17-2.4-.9-3.77-1.09a9.45,9.45,0,0,1-4.72-2.25c-1.39-1.16-2.67-2.45-4.14-3.52a14.42,14.42,0,0,0-5.87-2.55l.44.77a35.87,35.87,0,0,1,19.11-26,34.7,34.7,0,0,1,3.76-1.63c1.14-.42,2.59-.6,3.43-1.55a3.32,3.32,0,0,0,.75-2.28c0-1.49,0-3,0-4.49V100.49l-.63.63H185l-.62-.63V188.9a4.16,4.16,0,0,0,0,1.22.85.85,0,0,1,0,.16l.46-.61a16,16,0,0,0-7.32,3.79c-1.12,1-2.34,1.9-3.38,2.93a2.87,2.87,0,0,0-.82,2.54,3,3,0,0,0,4.13,2.25,15.4,15.4,0,0,0,3.35-2.74,12,12,0,0,1,4.37-2.77l-.79-.61c0,6.61-.08,13.22,0,19.83a3,3,0,1,0,5.91.23c.14-3.17,0-6.37,0-9.53V194.8l-.79.6c3.53.61,5.63,3.31,8.31,5.39a15.34,15.34,0,0,0,18.23.36c2.69-2,4.78-4.81,8.15-5.63l-.8-.6q0,.59,0,1.17a.63.63,0,0,0,1.25,0q0-.59,0-1.17a.63.63,0,0,0-.79-.6c-3.17.77-5.22,3.13-7.65,5.13a14.13,14.13,0,0,1-18.52-.37c-2.44-2.09-4.55-4.32-7.84-4.89a.65.65,0,0,0-.8.61v19c0,1,.2,2.24-.75,2.82a1.77,1.77,0,0,1-2.53-.73,3,3,0,0,1-.13-1.15c0-3.37,0-6.74,0-10.11v-9.54a.63.63,0,0,0-.79-.6A14.89,14.89,0,0,0,179.5,198c-.8.72-2,2.16-3.11,2.24a1.84,1.84,0,0,1-1.83-1.69c-.06-1.12,1.15-1.75,1.88-2.4s1.56-1.42,2.37-2.09a14.38,14.38,0,0,1,6.4-3.15.62.62,0,0,0,.46-.6V104.15a29.19,29.19,0,0,0,0-3.5.86.86,0,0,1,0-.16.63.63,0,0,0-.63-.62h-5.65a.63.63,0,0,0-.62.62v57.69c0,.34,0,.68,0,1-.09,1.28-1,1.59-2.07,1.93a37.67,37.67,0,0,0-4,1.55,37.06,37.06,0,0,0-21,27.4.64.64,0,0,0,.44.77c3.31.64,5.76,2.45,8.21,4.66,2.06,1.85,4.11,3.39,7,3.72,1.17.14,2.72-.14,3.07,1.35a1.7,1.7,0,0,1-1.66,2.15,13.13,13.13,0,0,1-8.65-3c-2.6-2-4.69-4.63-8-5.44a.64.64,0,0,0-.8.6A37,37,0,0,0,163,223c.87.8,1.77,1.56,2.7,2.27s2.23,2,3.34,2.22a4.1,4.1,0,0,0,1,0h34.44c.66,0,1.32,0,2,0,1.05,0,1.89-.86,2.72-1.45a37.31,37.31,0,0,0,15.51-30A.63.63,0,0,0,223.46,196.09Z"/><path class="cls-3" d="M201.25,133.41h10.88a9.53,9.53,0,0,1,6.54,2,8.68,8.68,0,0,1,3,6.64c.05,7.7,0,15.41,0,23.11V174l1.17-.32a42.28,42.28,0,0,0-5.77-7.09,6,6,0,0,0-.77-.74c.15.1-.51-.44-.29,0,0-.05,0-.14,0-.19a3.76,3.76,0,0,1,0-1.06v-9.15c0-2.67,0-5.34,0-8a8.16,8.16,0,0,0-5.48-8,14.72,14.72,0,0,0-4.77-.4h-4.47l.62.62v-6.91a.63.63,0,0,0-1.25,0v6.91a.64.64,0,0,0,.63.63c2.25,0,4.5,0,6.75,0,4.14.08,6.72,3.41,6.72,7.34v16.75c0,.73-.17,1.48.34,2.05,1.08,1.22,2.35,2.29,3.42,3.54a41.35,41.35,0,0,1,3.24,4.33.63.63,0,0,0,1.16-.31v-22.4c0-3.18,0-6.35,0-9.53a9.87,9.87,0,0,0-9.79-9.93c-4-.06-7.9,0-11.84,0A.63.63,0,0,0,201.25,133.41Z"/><path class="cls-3" d="M201.25,145h5.08a13.22,13.22,0,0,1,2,0,2.11,2.11,0,0,1,1.73,2.19c.07,3.65,0,7.31,0,11v4.07l.94-.54a42.32,42.32,0,0,0-9.57-4.76l.45.6V144.36a.63.63,0,0,0-1.25,0v13.17a.64.64,0,0,0,.46.6,40.69,40.69,0,0,1,9.28,4.64.63.63,0,0,0,.94-.54V151.51c0-1.46,0-2.92,0-4.38a3.42,3.42,0,0,0-1.44-2.82,4.19,4.19,0,0,0-2.52-.58h-6.09A.63.63,0,0,0,201.25,145Z"/><path class="cls-3" d="M211.05,169.13a36,36,0,0,1,12,21.29l.44-.77A17.41,17.41,0,0,0,215,194.3a18.67,18.67,0,0,1-3.67,2.84,9.4,9.4,0,0,1-5.2.88c-3.4-.3-5.49-2.66-7.95-4.73a15.67,15.67,0,0,0-8.51-3.82l.62.63V101.87a4.16,4.16,0,0,0,0-1.22.86.86,0,0,1,0-.16l-.62.63h6.87l-.62-.63v56.65a8.74,8.74,0,0,0,.23,3.23,3.27,3.27,0,0,0,2.3,1.82,40.73,40.73,0,0,1,4.57,1.77,36.43,36.43,0,0,1,8,5.17c.61.52,1.49-.36.88-.88a36.82,36.82,0,0,0-6.55-4.51,33.59,33.59,0,0,0-3.38-1.6c-.52-.22-1-.42-1.57-.62a11,11,0,0,1-2.47-.87c-1-.66-.75-2-.75-3V100.49a.63.63,0,0,0-.63-.62h-6.87a.63.63,0,0,0-.63.62v86a29.19,29.19,0,0,0,0,3.5.86.86,0,0,1,0,.16.65.65,0,0,0,.63.62c3.64.43,6.35,2.28,9,4.67,2.33,2.1,4.62,3.75,7.86,3.91a11.19,11.19,0,0,0,8.24-3.12c2.76-2.41,5.24-4.61,9-5.33a.64.64,0,0,0,.44-.77,37.06,37.06,0,0,0-12.29-21.83C211.33,167.72,210.44,168.6,211.05,169.13Z"/><path class="cls-3" d="M195.21,80.77v3.89l.63-.62H190c-1.77,0-3.74,0-4.32,2.1a3,3,0,0,0,3,3.81c1.92.06,3.86,0,5.79,0h5.9l-.62-.62v6.5l.62-.63H175.67l.63.63v-6.5l-.63.62h4c1.21,0,2.59.18,3.58-.67a3.1,3.1,0,0,0,.62-3.84c-.81-1.4-2.29-1.4-3.72-1.4l.63.62V80.77l-.63.62h15.7a.63.63,0,0,0,0-1.25h-15.7a.63.63,0,0,0-.62.63v3.89a.63.63,0,0,0,.62.63c1.06,0,2.35-.14,2.77,1.09a1.71,1.71,0,0,1-1.66,2.32c-1.85.09-3.72,0-5.58,0a.64.64,0,0,0-.62.63v6.5a.64.64,0,0,0,.62.62H200.3a.64.64,0,0,0,.63-.62v-6.5a.64.64,0,0,0-.63-.63H190.25c-1.25,0-3.14.3-3.43-1.37-.38-2.18,1.94-2,3.37-2h5.65a.64.64,0,0,0,.62-.63V80.77A.63.63,0,0,0,195.21,80.77Z"/><path class="cls-3" d="M86.29,139.24H96.53c.7,0,1.39,0,1.85.63A1.51,1.51,0,0,1,98,142a2.8,2.8,0,0,1-1.35.27c-1.67.12-3.4,0-5.08,0h-5.3l.63.62v-4.24a.63.63,0,0,0-1.25,0v4.24a.63.63,0,0,0,.62.63h5c1.8,0,3.66.13,5.46,0a4.06,4.06,0,0,0,1.85-.4,2.74,2.74,0,0,0,1.3-2,2.78,2.78,0,0,0-2.72-3.1c-1.68-.06-3.37,0-5,0H86.29A.63.63,0,0,0,86.29,139.24Z"/><path class="cls-3" d="M86.29,148.15h8.77l-.62-.62v31.24l.62-.63H86.29l.63.63V147.53a.63.63,0,0,0-1.25,0v31.24a.63.63,0,0,0,.62.62h8.77a.64.64,0,0,0,.63-.62V147.53a.64.64,0,0,0-.63-.63H86.29A.63.63,0,0,0,86.29,148.15Z"/><path class="cls-3" d="M70,139.68a2.29,2.29,0,0,1,1.77-.44h9.83l-.63-.62v4.24l.63-.62H73.52c-.64,0-1.32.06-2,0a2.14,2.14,0,0,1-1.6-.51,1.51,1.51,0,0,1,.07-2c.55-.59-.33-1.47-.88-.89a2.79,2.79,0,0,0,.42,4.25,3.9,3.9,0,0,0,2,.45h10.1a.64.64,0,0,0,.62-.63v-4.24a.63.63,0,0,0-.62-.63H71.74a3.49,3.49,0,0,0-2.59.8C68.56,139.34,69.44,140.22,70,139.68Z"/><path class="cls-3" d="M81,147.53v31.24l.63-.63H73.19l.63.63V147.53l-.63.62h8.44a.63.63,0,0,0,0-1.25H73.19a.63.63,0,0,0-.62.63v31.24a.63.63,0,0,0,.62.62h8.44a.64.64,0,0,0,.62-.62V147.53A.63.63,0,0,0,81,147.53Z"/><path class="cls-3" d="M46.39,230.66H99.63c1.93,0,5.56.64,6.79-1.28a3,3,0,0,0-2.5-4.63c-.7,0-1.41,0-2.11,0H56c-3,0-6.18-.27-9.2,0h-.45l.62.62V168.1l-.62.63H68.53l-.63-.63v17.54c0,2.14-.09,4.29,0,6.43.16,3.65,5.56,4,5.9.28.28-2.93,0-6,0-8.92l-.63.63h8.44l-.63-.63v8.93a5.81,5.81,0,0,0,.2,2.08,3,3,0,0,0,5.12.71c1-1.31.6-3.67.6-5.2v-6.52l-.63.63h8.77l-.62-.63V199a16.68,16.68,0,0,1-.35,4.4,10.44,10.44,0,0,1-17.54,4.4A10.07,10.07,0,0,1,74,202.66c-.23-1.26.07-2.68-.85-3.73a3.08,3.08,0,0,0-4.75.3c-.71,1.1-.49,2.58-.32,3.81A16.21,16.21,0,0,0,95.1,212.7a16.62,16.62,0,0,0,5.25-12.41V177.47c0-2.93.25-6,0-8.9,0-.15,0-.31,0-.47l-.62.63h23.85l-.63-.62v57.29l.63-.63H114a8.36,8.36,0,0,0-2.06.1,3,3,0,0,0-.87,5.35c1.43.93,4,.47,5.65.47h6.91l-.63-.63v7.2l.63-.63H46.39l.62.63V230a.63.63,0,0,0-1.25,0v7.21a.63.63,0,0,0,.63.62h77.19a.62.62,0,0,0,.62-.62v-7.2a.62.62,0,0,0-.62-.62c-3.54,0-7.09.06-10.64,0a1.74,1.74,0,0,1-1.91-1.27,1.71,1.71,0,0,1,1.69-2.15c1.71-.09,3.45,0,5.17,0h5.69a.63.63,0,0,0,.62-.62V168.1a.63.63,0,0,0-.62-.63H99.73a.63.63,0,0,0-.63.62v29.76c0,3.13,0,6.12-1.33,9.06A15,15,0,0,1,72,209.58a14.66,14.66,0,0,1-2.35-5c-.32-1.25-1-3.6-.17-4.77a1.82,1.82,0,0,1,2.73-.1,3,3,0,0,1,.41,1.92,11.26,11.26,0,0,0,.44,2.44,11.56,11.56,0,0,0,6,7,11.71,11.71,0,0,0,15.56-5.43c1.49-3.16,1.13-6.74,1.13-10.13V183.43a.63.63,0,0,0-.63-.62H86.29a.62.62,0,0,0-.62.62c0,3.24.07,6.48,0,9.72a1.71,1.71,0,1,1-3.42.15c-.09-1.51,0-3.05,0-4.56v-5.31a.62.62,0,0,0-.62-.62H73.19a.62.62,0,0,0-.62.62v8c0,1.23-.36,2.56-1.92,2.39-1.17-.13-1.49-1.09-1.5-2.1-.06-5.78,0-11.57,0-17.36V168.1a.64.64,0,0,0-.62-.62H46.39a.64.64,0,0,0-.63.62v57.27a.64.64,0,0,0,.63.63h56.17a5.9,5.9,0,0,1,2.1.13,1.75,1.75,0,0,1-.13,3.2,2.75,2.75,0,0,1-.9.08c-1,0-2,0-2.95,0H71.06c-8.08,0-16.18-.15-24.27,0h-.4A.63.63,0,0,0,46.39,230.66Z"/><path class="cls-3" d="M46.39,230.66a.63.63,0,0,0,0-1.25.63.63,0,0,0,0,1.25Z"/><path class="cls-3" d="M66,106.41a7.53,7.53,0,0,0,2.14,8.92,7.63,7.63,0,0,0,8,.9A7.5,7.5,0,1,0,66,106.41c-.34.72.74,1.36,1.08.63a6.3,6.3,0,0,1,11.54,0,6.26,6.26,0,0,1-2.12,7.57,6.38,6.38,0,0,1-6.75.33A6.28,6.28,0,0,1,67.07,107C67.38,106.31,66.3,105.67,66,106.41Z"/><path class="cls-3" d="M71.33,108.94a1.51,1.51,0,0,1,.15-.28.36.36,0,0,1,.07-.1c-.06.07,0,0,0,0l.2-.2,0,0,.18-.12.14-.07s.11-.06,0,0a2,2,0,0,1,.35-.11,1.76,1.76,0,0,1,.57,0c.11,0-.14,0,0,0l.12,0a1.31,1.31,0,0,1,.28.09c-.1,0,.12.06.15.08l.12.07s.16.12.07,0l.17.16.12.14s.07.09,0,0c0,.08.1.15.14.23s0,.11.07.14c0-.23,0-.27,0-.12a.41.41,0,0,0,0,.16,1.57,1.57,0,0,1,0,1.09,1.51,1.51,0,0,1-.15.28l-.07.11c0-.08,0,0,0,0a1.54,1.54,0,0,1-.39.35l-.14.07a.35.35,0,1,0,0,0,1.25,1.25,0,0,1-.25.09l-.26.06c.12,0,0,0,0,0h-.2l-.25,0-.14,0L72.2,111h0l-.14-.08-.12-.07,0,0a1.29,1.29,0,0,1-.21-.19l-.09-.1h0l-.07-.09-.15-.25c0-.11,0,0,0,0a1,1,0,0,1-.08-.25,1.11,1.11,0,0,1,0-.3,1.52,1.52,0,0,1,.11-.62.65.65,0,0,0-.23-.86.63.63,0,0,0-.85.23,2.79,2.79,0,0,0-.16,2,2.89,2.89,0,0,0,.88,1.34,2.92,2.92,0,0,0,3,.47,2.81,2.81,0,0,0,1.76-2.88,1.61,1.61,0,0,0-.1-.53l0-.07c0,.15,0,.12,0-.07a1.19,1.19,0,0,0-.11-.26,2.59,2.59,0,0,0-.45-.68,2.88,2.88,0,0,0-4.73.69.64.64,0,0,0,.22.85A.63.63,0,0,0,71.33,108.94Z"/><path class="cls-3" d="M70.79,109.25a.63.63,0,0,0,0-1.25.63.63,0,0,0,0,1.25Z"/><path class="cls-3" d="M97.28,126.6a7.07,7.07,0,0,0,6.75-5.18,7,7,0,0,0-2.69-7.4,7.09,7.09,0,0,0-7.47-.43,6.94,6.94,0,0,0,3.41,13,.63.63,0,0,0,0-1.25A5.83,5.83,0,0,1,92.05,122a5.72,5.72,0,0,1,1.78-6.9,5.81,5.81,0,0,1,6.07-.5A5.69,5.69,0,0,1,103,120a5.76,5.76,0,0,1-5.71,5.32A.63.63,0,0,0,97.28,126.6Z"/><path class="cls-3" d="M96.26,119.31a2.12,2.12,0,0,1,.11-.21l0-.07,0,0,.05-.06a1.06,1.06,0,0,1,.15-.15c.08-.07,0,0,0,0l.11-.08s.25-.15.11-.06a1,1,0,0,1,.23-.08l.14,0s-.12,0,0,0h.27c.1,0-.15,0,0,0l.09,0,.2.06c.08,0-.14-.07,0,0l.08,0,.1.06.06,0c-.08-.06,0,0,0,0l.07.06.06.06s.09.13,0,0l0,0a.35.35,0,0,1,0,.08s0,.07,0,.1,0,0,0,0a.19.19,0,0,1,0,.08,1.05,1.05,0,0,1,.06.24c0-.13,0,0,0,0v.14a.45.45,0,0,1,0,.11c0-.13,0,0,0,0s0,.09,0,.14,0,0,0,.08v0l-.11.19,0,.05,0,0-.13.13c-.1.11.07,0,0,0a1.1,1.1,0,0,1-.14.09.91.91,0,0,1-.17.09l-.11,0-.08,0h0c.1,0,0,0,0,0h-.13s-.17,0-.17,0,.15,0,0,0l-.1,0-.18-.06c-.09,0,.13.07,0,0l-.11-.06-.07,0-.05,0s0,0,0,0-.14-.13-.17-.16-.07-.06-.07-.08l0,0,0-.07-.11-.19c-.07-.12,0,.1,0,0a.75.75,0,0,1,0-.16l0-.13c0,.11,0,0,0,0v-.11s0-.16,0-.06a.31.31,0,0,1,0-.13s.07-.21,0-.09a.66.66,0,0,0,.06-.48.63.63,0,0,0-1.14-.15,2.32,2.32,0,0,0-.13,1.62,2.27,2.27,0,0,0,.71,1.07,2.32,2.32,0,0,0,2.34.41,2.28,2.28,0,0,0,1.48-2.33,2.32,2.32,0,0,0-4.4-.77.63.63,0,1,0,1.08.63Z"/><path class="cls-3" d="M95.72,119.62a.63.63,0,0,0,0-1.25.63.63,0,0,0,0,1.25Z"/><path class="cls-3" d="M105.51,107.72a3,3,0,0,0-2.76-3c-.6,0-1.22,0-1.83,0H98.16a4.62,4.62,0,0,0-2,.31A3.05,3.05,0,0,0,95.5,110a3.21,3.21,0,0,0,2.23.72h4.8a3,3,0,0,0,3-3,.63.63,0,0,0-1.25,0,1.74,1.74,0,0,1-1.75,1.71H98.27a4.66,4.66,0,0,1-1.46-.11,1.64,1.64,0,0,1-1-1.32,1.79,1.79,0,0,1,.11-1,.43.43,0,0,1,.07-.16,2.39,2.39,0,0,1,.13-.21.59.59,0,0,1,.11-.14l.2-.18a1.71,1.71,0,0,1,1-.31h5a1.76,1.76,0,0,1,1.85,1.71A.63.63,0,0,0,105.51,107.72Z"/><path class="cls-3" d="M104.88,108.35a.63.63,0,0,0,0-1.25.63.63,0,0,0,0,1.25Z"/><path class="cls-3" d="M63.28,99.56h5.35A4.27,4.27,0,0,0,71,99.12,3,3,0,0,0,72.29,96a2.83,2.83,0,0,0-2.35-2.34,16.43,16.43,0,0,0-2.22,0H64.35a5.84,5.84,0,0,0-2.32.24,3,3,0,0,0,.26,5.52,3,3,0,0,0,1,.15.63.63,0,0,0,0-1.25H63s.09,0,0,0a2.79,2.79,0,0,1-.39-.1l-.08,0h0l-.15-.08L62.21,98c-.1-.06,0,0,0,0l-.08-.07L62,97.82l-.08-.09-.06-.08-.1-.17a.91.91,0,0,1-.07-.14c0-.08,0,.1,0,0l0-.07a1.89,1.89,0,0,1-.09-.34c0-.06,0-.15,0,0,0-.06,0-.12,0-.18s0-.24,0-.35,0,0,0,0a.85.85,0,0,1,0-.17,3.37,3.37,0,0,1,.1-.34c0,.1,0,0,0,0l.09-.16.08-.13c.08-.11,0,0,.06-.07a2.61,2.61,0,0,1,.24-.23c-.08.07,0,0,0,0l.19-.1s.14-.07.05,0l.16-.06.2,0s.2,0,.1,0h.38c.27,0,.54,0,.81,0h3.07c.71,0,1.43,0,2.14,0h.33c.11,0-.14,0,0,0a1.89,1.89,0,0,1,.34.09l.11,0h0l.16.09.16.1c.06,0,0,0,0,0s0,0,.05.05a.8.8,0,0,1,.13.13s.13.14.09.09,0,.07.07.1l.08.13.07.15c0,.07,0,0,0,0l0,.09c0,.11.06.21.08.32s0,.19,0,.06c0,.06,0,.12,0,.18s0,.22,0,.33,0,0,0,.07,0-.11,0,0l0,.17a2.81,2.81,0,0,1-.1.31c0,.07,0,0,0,0l0,.09s0,.1-.08.16l-.1.14c-.07.1.05,0,0,0s-.16.17-.25.25c.08-.07,0,0,0,0l-.16.1-.1,0-.16.06a1.53,1.53,0,0,1-.6.08H63.28A.63.63,0,0,0,63.28,99.56Z"/><path class="cls-3" d="M63.28,99.56a.63.63,0,0,0,0-1.25.63.63,0,0,0,0,1.25Z"/><path class="cls-3" d="M69.55,120.81a2.94,2.94,0,0,0-2.29,1,3.08,3.08,0,0,0-.65,2.23,2.91,2.91,0,0,0,1.1,2.07,3.24,3.24,0,0,0,2.07.59c.66,0,1.32,0,2,0a3,3,0,0,0,2.16-.83,3.11,3.11,0,0,0,0-4.29,3,3,0,0,0-2.15-.79H69.55a.63.63,0,0,0,0,1.25h2.6c-.15,0,0,0,0,0l.24.06.13,0,.08,0c-.09,0-.1,0,0,0l.19.09s.25.19.1.07a2.57,2.57,0,0,1,.33.33c-.12-.15,0,0,.06.09l.11.2c.08.16,0-.1,0,.06a2.58,2.58,0,0,1,.08.26c0,.08,0,.15,0,.23,0-.18,0,0,0,.06a2.75,2.75,0,0,1,0,.5c0-.16,0,0,0,.07l-.06.22c0,.05-.12.28,0,.1a2,2,0,0,1-.1.21,2.14,2.14,0,0,1-.13.19c-.07.12.1-.1,0,0a.15.15,0,0,0,0,.06l-.17.16-.09.08c.14-.12,0,0,0,0l-.17.1-.11,0c.15-.07,0,0,0,0l-.26.08a.61.61,0,0,0-.13,0c-.13,0,.12,0,0,0-.55,0-1.11,0-1.66,0h-1.2c-.16,0,.13,0,0,0l-.31-.08s-.25-.11-.09,0l-.22-.11s-.25-.18-.11-.06a1.29,1.29,0,0,1-.17-.16l-.16-.17c.13.14,0,0-.06-.1l-.09-.16,0-.11c.09.17,0,0,0,0a1.41,1.41,0,0,1-.06-.22c0-.06-.06-.35,0-.14a2.77,2.77,0,0,1,0-.5.41.41,0,0,1,0-.11c0-.11,0,.15,0,0a1.8,1.8,0,0,1,.06-.22A2.58,2.58,0,0,1,68,123c-.07.19,0-.07.07-.12l.13-.2c.07-.11-.1.1,0,0l.1-.12.19-.17c.06-.06-.13.08,0,0a1.1,1.1,0,0,0,.14-.09l.11-.06s.21-.08,0,0l.25-.08a.5.5,0,0,1,.13,0s.24,0,.06,0l.35,0A.63.63,0,0,0,69.55,120.81Z"/><path class="cls-3" d="M69.55,122.06a.63.63,0,0,0,0-1.25.63.63,0,0,0,0,1.25Z"/><path class="cls-3" d="M94.3,102.39V97.94a3,3,0,0,0-1-2.4,3.15,3.15,0,0,0-2.9-.53,2.85,2.85,0,0,0-2,2.42,16,16,0,0,0,0,2v2.71a3.22,3.22,0,0,0,.79,2.36,3.1,3.1,0,0,0,2.81.82,2.85,2.85,0,0,0,2.2-2,3.74,3.74,0,0,0,.12-.89.63.63,0,0,0-1.25,0c0,.07,0,.13,0,.2s0,.2,0,.11,0,.08,0,.1,0,.13-.05.19a.88.88,0,0,0,0,.15c0,.1,0,0,0,0l0,.07a2.61,2.61,0,0,1-.17.28c0,.1.08-.08,0,0l-.1.11-.1.1-.06,0c-.08.07.08,0,0,0s-.16.1-.24.15l-.12.06,0,0-.26.08-.15,0c-.16,0,.06,0,0,0a4,4,0,0,1-.6,0c-.08,0,.13,0,0,0H91l-.15,0c-.1,0-.19-.06-.29-.09s.12.06,0,0l-.12-.06-.11-.07s-.17-.12-.1-.06,0,0,0,0a1.14,1.14,0,0,1-.11-.11l-.09-.1c-.1-.1,0,.1,0,0a2,2,0,0,1-.14-.25s0-.05,0-.07,0,.07,0,0l-.06-.17a.85.85,0,0,1,0-.17s0-.19,0-.1,0-.11,0-.14a.91.91,0,0,1,0-.17V97.82a1,1,0,0,1,0-.17c0-.05,0-.26,0-.1,0-.1,0-.21.07-.31l.06-.17s0-.09,0,0,0,0,0-.07l.15-.27c.08-.12-.07.09,0,0a.52.52,0,0,1,.1-.11,1.14,1.14,0,0,1,.11-.11c.06-.05.11-.08,0,0l.26-.17.14-.07c.09-.05-.13,0,0,0a1.61,1.61,0,0,1,.29-.09l.13,0c.17,0-.06,0,0,0h.58c.08,0-.13,0,0,0l.17,0,.28.08c.1,0-.13-.06,0,0l.15.08.22.15,0,0,.11.11.1.12c.07.08-.07-.11,0,0s.12.19.17.29,0-.08,0,0a1.09,1.09,0,0,1,0,.17.83.83,0,0,1,0,.15s0,.24,0,.09c0,.13,0,.26,0,.39v4.52A.63.63,0,0,0,94.3,102.39Z"/><path class="cls-3" d="M93.67,103a.63.63,0,0,0,0-1.25.63.63,0,0,0,0,1.25Z"/><path class="cls-3" d="M55.72,181.32a3,3,0,0,0-2.79,2,5.61,5.61,0,0,0-.17,2v2a3,3,0,0,0,4.88,2.4,2.89,2.89,0,0,0,1-2.21c0-.55,0-1.1,0-1.64a11.46,11.46,0,0,0-.07-2.11,3,3,0,0,0-2.89-2.34.63.63,0,0,0,0,1.25A1.72,1.72,0,0,1,57.41,184a3.86,3.86,0,0,1,0,.51v2.8c0,.06,0,.12,0,.18a.49.49,0,0,1,0,.12c0,.12,0-.08,0,.07a1.55,1.55,0,0,1-.06.23s-.1.27,0,.13a2.38,2.38,0,0,1-.23.41c.09-.14-.06.05-.08.08l-.17.15s-.09.06,0,0l-.09.06-.21.13-.08,0c-.13.07.13,0,0,0l-.19.06-.2.05L56,189h-.43c-.19,0,.08,0-.1,0l-.24-.06-.19-.06c-.14,0,.09,0,0,0l-.1,0-.19-.11-.08-.05c-.12-.07.09.08,0,0l-.17-.15s-.18-.22-.08-.08a3.38,3.38,0,0,1-.24-.41c.07.14,0-.09,0-.13s0-.13-.05-.2,0-.2,0-.05c0,0,0-.07,0-.11a1.93,1.93,0,0,1,0-.24v-1.43c0-.54,0-1.07,0-1.61a1.72,1.72,0,0,1,1.71-1.7A.63.63,0,0,0,55.72,181.32Z"/><path class="cls-3" d="M55.72,182.57a.63.63,0,0,0,0-1.25.63.63,0,0,0,0,1.25Z"/><path class="cls-3" d="M55.72,192.49a3,3,0,0,0-2.95,2.8c0,.35,0,.71,0,1.07v19.57c0,1.6.44,3.15,2.21,3.58a3,3,0,0,0,3.71-3c.11-4.1,0-8.21,0-12.32v-7.31c0-.47,0-.94,0-1.41a3,3,0,0,0-3-3c-.8-.05-.8,1.2,0,1.25,2,.13,1.71,2.07,1.71,3.46v18c0,1,.23,2.48-.9,3A1.74,1.74,0,0,1,54,216.9a6.48,6.48,0,0,1,0-.88V197.77c0-1.47-.41-3.89,1.71-4C56.52,193.69,56.52,192.44,55.72,192.49Z"/><path class="cls-3" d="M55.72,193.74a.63.63,0,0,0,0-1.25.63.63,0,0,0,0,1.25Z"/><path class="cls-3" d="M161,180.56a3.05,3.05,0,0,0-2.46,0,3.1,3.1,0,0,0-1.61,1.71c-.43,1-.81,1.93-1.15,2.92a5.35,5.35,0,0,0-.47,2.83,3,3,0,0,0,5.59.53c.18-.41.28-.86.43-1.3s.38-1.11.6-1.66a4.94,4.94,0,0,0,.68-2.94,3,3,0,0,0-1.61-2.05c-.72-.35-1.35.73-.63,1.08a1.79,1.79,0,0,1,1,1.2,2.62,2.62,0,0,1-.37,1.7c-.33.77-.63,1.55-.89,2.34a3.36,3.36,0,0,1-.87,1.79,1.74,1.74,0,0,1-2.64-.7,2.69,2.69,0,0,1,.18-1.89c.24-.77.52-1.54.82-2.29a4.34,4.34,0,0,1,1.08-1.93,1.72,1.72,0,0,1,1.68-.22.65.65,0,0,0,.86-.22A.64.64,0,0,0,161,180.56Z"/><path class="cls-3" d="M160.69,181.73a.63.63,0,0,0,0-1.25.63.63,0,0,0,0,1.25Z"/><path class="cls-3" d="M174.92,167.78a3,3,0,0,0-3.24-1.39,5.93,5.93,0,0,0-1.75.9c-.68.43-1.35.88-2,1.36a34.88,34.88,0,0,0-6.73,6.51,3.23,3.23,0,0,0-.68,3.42,3,3,0,0,0,3.11,1.72c1.46-.21,2.13-1.43,3-2.45a29.65,29.65,0,0,1,3.33-3.3c.69-.57,1.4-1.11,2.14-1.61s1.47-.85,2.11-1.37a3,3,0,0,0,.7-3.79c-.38-.71-1.46-.08-1.08.63.59,1.11,0,2-1,2.56a29,29,0,0,0-2.91,2,30,30,0,0,0-5.16,5.16,1.79,1.79,0,0,1-2.67.52c-.93-.78-.6-1.89,0-2.71a33.15,33.15,0,0,1,5.14-5.25,34.82,34.82,0,0,1,3.45-2.46,3.18,3.18,0,0,1,1.61-.69,1.73,1.73,0,0,1,1.48.85C174.27,169.08,175.35,168.46,174.92,167.78Z"/><path class="cls-3" d="M174.38,168.72a.63.63,0,0,0,0-1.25.63.63,0,0,0,0,1.25Z"/></svg>