<svg xmlns="http://www.w3.org/2000/svg" width="18.66" height="12.871" viewBox="0 0 18.66 12.871"><defs><style>.a{fill:#2c2c2c;}</style></defs><g transform="translate(9.657 -2.895) rotate(47)"><g transform="translate(0 4.244)"><g transform="translate(0)"><path class="a" d="M8.055.9A3,3,0,0,0,7.538.486,3.081,3.081,0,0,0,3.7.9L.9,3.7A3.08,3.08,0,0,0,5.254,8.062l2.31-2.31a.22.22,0,0,0-.156-.376H7.32A3.7,3.7,0,0,1,5.912,5.1a.22.22,0,0,0-.24.048L4.011,6.814A1.321,1.321,0,0,1,2.143,4.946l2.81-2.807a1.32,1.32,0,0,1,1.866,0,.9.9,0,0,0,1.237,0A.871.871,0,0,0,8.055.9Z"/></g></g><g transform="translate(4.885)"><path class="a" d="M7.414.9A3.081,3.081,0,0,0,3.058.9L.75,3.208a.221.221,0,0,0,.161.376H.992A3.7,3.7,0,0,1,2.4,3.859a.22.22,0,0,0,.24-.048L4.294,2.156A1.321,1.321,0,1,1,6.163,4.024L4.1,6.086l-.018.02-.722.717a1.32,1.32,0,0,1-1.866,0,.9.9,0,0,0-1.237,0,.877.877,0,0,0,0,1.241,3.054,3.054,0,0,0,.88.616c.046.022.092.04.139.059s.095.035.141.053.095.033.141.046l.13.035c.088.022.176.04.266.055a3.062,3.062,0,0,0,.328.031h.167l.132-.015c.048,0,.1-.013.156-.013h.075l.152-.022.07-.013.128-.026h.024a3.08,3.08,0,0,0,1.428-.81l2.8-2.8A3.08,3.08,0,0,0,7.414.9Z"/></g></g></svg>