<svg xmlns="http://www.w3.org/2000/svg" width="22.998" height="21.582" viewBox="0 0 22.998 21.582"><defs><style>.a{fill:#375aa8;}</style></defs><g transform="translate(0 -15.769)"><g transform="translate(9.477 15.769)"><g transform="translate(0 0)"><circle class="a" cx="2.023" cy="2.023" r="2.023"/></g></g><g transform="translate(6.104 18.535)"><path class="a" d="M144.566,77.346a3.365,3.365,0,0,1-6.568,0,2.7,2.7,0,0,0-2.112,2.63v2.7a1.349,1.349,0,0,0,2.7,0V81.325h5.4v1.349a1.349,1.349,0,0,0,2.7,0v-2.7A2.7,2.7,0,0,0,144.566,77.346Z" transform="translate(-135.886 -77.346)"/></g><g transform="translate(18.919 31.982)"><path class="a" d="M424.18,376.95a2.023,2.023,0,1,0-2.023,3.5,2.076,2.076,0,0,0,2.809-.741A2.038,2.038,0,0,0,424.18,376.95Z" transform="translate(-421.144 -376.679)"/></g><g transform="translate(12.313 26.117)"><g transform="translate(0 0)"><path class="a" d="M282.512,247.656l-2.336-1.349a1.349,1.349,0,1,0-1.349,2.336l1.168.674-2.7,4.673-1.168-.674a1.349,1.349,0,0,0-1.349,2.336L277.116,257a2.7,2.7,0,0,0,3.333-.514,3.365,3.365,0,0,1,3.284-5.688A2.7,2.7,0,0,0,282.512,247.656Z" transform="translate(-274.105 -246.126)"/></g></g><g transform="translate(0 31.982)"><g transform="translate(0)"><path class="a" d="M3.81,377.692a2.043,2.043,0,0,0-3.55,2.023,2.076,2.076,0,0,0,2.809.741A2.023,2.023,0,0,0,3.81,377.692Z" transform="translate(0 -376.68)"/></g></g><g transform="translate(0.936 26.117)"><g transform="translate(0 0)"><path class="a" d="M30.395,253.81a1.351,1.351,0,0,0-1.843-.494l-1.168.674-2.7-4.673,1.168-.674a1.349,1.349,0,1,0-1.349-2.336l-2.336,1.349a2.7,2.7,0,0,0-1.221,3.144,3.365,3.365,0,0,1,3.284,5.688,2.7,2.7,0,0,0,3.333.514l2.336-1.349A1.351,1.351,0,0,0,30.395,253.81Z" transform="translate(-20.824 -246.127)"/></g></g></g></svg>