<svg xmlns="http://www.w3.org/2000/svg" width="13.482" height="15.479" viewBox="0 0 13.482 15.479"><defs><style>.a{fill:#2c2c2c;}</style></defs><g transform="translate(0.001 0)"><path class="a" d="M12.483,4.993V2.5h-1V0H0V14.231a1.25,1.25,0,0,0,1.248,1.248H12.234a1.25,1.25,0,0,0,1.248-1.248V4.993ZM1.248,14.98A.75.75,0,0,1,.5,14.231V.5H10.985V14.231a1.242,1.242,0,0,0,.25.749Zm11.734-.749a.749.749,0,1,1-1.5,0V3h.5V13.482h.5V5.493h.5Zm0,0"/><path class="a" d="M384,448h.5v.5H384Zm0,0" transform="translate(-372.016 -434.019)"/><path class="a" d="M148.088,275.05l-.842-.24v-.067a1.25,1.25,0,0,0,.5-.993v-.456a1.281,1.281,0,0,0-1.127-1.285,1.248,1.248,0,0,0-1.37,1.242v.5a1.25,1.25,0,0,0,.5.993v.067l-.842.24a1.254,1.254,0,0,0-.905,1.2V277h4.993v-.745A1.254,1.254,0,0,0,148.088,275.05Zm.406,1.446H144.5v-.245a.753.753,0,0,1,.543-.72l1.2-.344v-.72l-.124-.072a.741.741,0,0,1-.375-.644v-.5a.749.749,0,0,1,.823-.746.779.779,0,0,1,.675.789v.456a.741.741,0,0,1-.375.644l-.124.072v.72l1.2.344a.753.753,0,0,1,.543.72Zm0,0" transform="translate(-139.506 -263.513)"/><path class="a" d="M112,246.991h6.991V240H112Zm.5-6.491h5.992v5.992H112.5Zm0,0" transform="translate(-108.505 -232.51)"/><path class="a" d="M35,37.992a3,3,0,1,0-3-3A3,3,0,0,0,35,37.992Zm0-.5A2.5,2.5,0,0,1,32.713,36a1.236,1.236,0,0,1,.8.357l.052.052a1.132,1.132,0,0,0,1.933-.8v-.241a.875.875,0,0,0-.874-.874.375.375,0,0,1-.375-.375v-.375a1.752,1.752,0,0,0-.322-1,2.471,2.471,0,0,1,.837-.233,1.4,1.4,0,0,0-.016.17,1.423,1.423,0,0,0,.537,1.117l.425.34a.759.759,0,0,1,.286.595,1.263,1.263,0,0,0,1.262,1.262l.027,0A2.5,2.5,0,0,1,35,37.493Zm2.5-2.5a2.5,2.5,0,0,1-.048.483,1.218,1.218,0,0,1-.189.017.763.763,0,0,1-.762-.762,1.255,1.255,0,0,0-.473-.985l-.425-.34a.926.926,0,0,1-.35-.727.866.866,0,0,1,.016-.167A2.5,2.5,0,0,1,37.493,35ZM33.5,33a1.255,1.255,0,0,1,.248.746v.375a.875.875,0,0,0,.874.874.375.375,0,0,1,.375.375v.241a.633.633,0,0,1-1.081.448l-.052-.052a1.737,1.737,0,0,0-1.236-.512.566.566,0,0,1-.079-.007A2.487,2.487,0,0,1,33.5,33Zm0,0" transform="translate(-31.001 -31.001)"/><path class="a" d="M240,32h3v.5h-3Zm0,0" transform="translate(-232.51 -31.001)"/><path class="a" d="M240,64h.5v.5H240Zm0,0" transform="translate(-232.51 -62.003)"/><path class="a" d="M272,64h2v.5h-2Zm0,0" transform="translate(-263.511 -62.003)"/><path class="a" d="M240,96h3v.5h-3Zm0,0" transform="translate(-232.51 -93.004)"/><path class="a" d="M240,128h3v.5h-3Zm0,0" transform="translate(-232.51 -124.005)"/><path class="a" d="M240,160h2v.5h-2Zm0,0" transform="translate(-232.51 -155.007)"/><path class="a" d="M320,160h.5v.5H320Zm0,0" transform="translate(-310.013 -155.007)"/><path class="a" d="M32,440h2v.5H32Zm0,0" transform="translate(-31.001 -426.268)"/><path class="a" d="M32,408h2v.5H32Zm0,0" transform="translate(-31.001 -395.267)"/><path class="a" d="M32,376h2v.5H32Zm0,0" transform="translate(-31.001 -364.266)"/><path class="a" d="M32,344h2v.5H32Zm0,0" transform="translate(-31.001 -333.264)"/><path class="a" d="M32,312h2v.5H32Zm0,0" transform="translate(-31.001 -302.263)"/></g></svg>