<?xml version="1.0" encoding="iso-8859-1"?>
<svg xmlns="http://www.w3.org/2000/svg" width="132" height="132" viewBox="0 0 132 132">
  <g id="Group_813" data-name="Group 813" transform="translate(-615.031 -244.031)">
    <circle id="Ellipse_53" data-name="Ellipse 53" cx="66" cy="66" r="66" transform="translate(615.031 244.031)" fill="#f5f5f5"/>
    <rect id="Rectangle_2222" data-name="Rectangle 2222" width="93" height="67" rx="5" transform="translate(637.031 279.031)" fill="#979797"/>
    <path id="Path_505" data-name="Path 505" d="M3.174,0H45.449l4.605,6.145H90.131a3.124,3.124,0,0,1,3.174,3.073v52.85a3.124,3.124,0,0,1-3.174,3.073H3.174A3.124,3.124,0,0,1,0,62.068v-59A3.124,3.124,0,0,1,3.174,0Z" transform="translate(636.588 281.058)" fill="#161616" opacity="0.14"/>
    <path id="Path_506" data-name="Path 506" d="M3.174,0H44.814l3.971,5.969H90.131a3.083,3.083,0,0,1,3.174,2.984V60.286a3.083,3.083,0,0,1-3.174,2.984H3.174A3.083,3.083,0,0,1,0,60.286V2.984A3.083,3.083,0,0,1,3.174,0Z" transform="translate(636.588 282.929)" fill="#b7b7b7"/>
  </g>
</svg>
