<svg id="Layer_1" data-name="Layer 1" xmlns="http://www.w3.org/2000/svg" viewBox="0 0 256 256"><defs><style>.cls-1,.cls-16{fill:none;stroke-miterlimit:10;}.cls-1{stroke:#00a79d;stroke-width:0.75px;}.cls-2{fill:#00a79d;}.cls-3{fill:#6d6e71;}.cls-4{font-size:9px;fill:#295c49;font-family:Montserrat-Bold, Montserrat;font-weight:700;}.cls-5{letter-spacing:-0.01em;}.cls-6{letter-spacing:-0.01em;}.cls-7{letter-spacing:-0.03em;}.cls-8{letter-spacing:-0.02em;}.cls-9{letter-spacing:0em;}.cls-10{letter-spacing:-0.01em;}.cls-11{letter-spacing:0em;}.cls-12{letter-spacing:0.02em;}.cls-13{letter-spacing:0.03em;}.cls-14{letter-spacing:0.02em;}.cls-15{letter-spacing:-0.02em;}.cls-16{stroke:#6d6e71;}</style></defs><rect class="cls-1" x="106.8" y="162.61" width="42.41" height="42.41"/><rect class="cls-1" x="107" y="162.94" width="21.2" height="41.76"/><rect class="cls-1" x="128" y="162.94" width="21.2" height="41.76"/><rect class="cls-1" x="128.1" y="176.23" width="5.16" height="15.18"/><rect class="cls-1" x="122.67" y="176.23" width="5.16" height="15.18"/><path class="cls-2" d="M95,121.08H81.94c-1,0-1.89-.18-2-1.38-.06-.6,0-1.22,0-1.82V106.13a7.68,7.68,0,0,1,0-1.66c.29-1.16,1.43-1,2.34-1h11.5c.67,0,1.56-.14,2.11.32s.49,1.44.49,2.18v12.67c0,1.06.1,2.4-1.38,2.49-.8,0-.8,1.3,0,1.25,3-.19,2.63-3.27,2.63-5.43v-9.15c0-2,.48-5.18-2.3-5.55a14.7,14.7,0,0,0-2.1,0H88.93c-2.49,0-5,0-7.47,0a2.69,2.69,0,0,0-2.76,2.63c0,.62,0,1.26,0,1.88V119.1a3.05,3.05,0,0,0,1,2.69,3.86,3.86,0,0,0,2.58.54H95A.63.63,0,0,0,95,121.08Z"/><path class="cls-2" d="M121.52,121.08h-13.1c-1,0-1.89-.18-2-1.38-.06-.6,0-1.22,0-1.82V106.13a7.68,7.68,0,0,1,0-1.66c.29-1.16,1.43-1,2.34-1h11.5c.67,0,1.56-.14,2.11.32s.49,1.44.49,2.18v12.67c0,1.06.1,2.4-1.38,2.49-.8,0-.8,1.3,0,1.25,3-.19,2.63-3.27,2.63-5.43v-9.15c0-2,.48-5.18-2.3-5.55a14.7,14.7,0,0,0-2.1,0h-4.34c-2.48,0-5,0-7.47,0a2.69,2.69,0,0,0-2.76,2.63c0,.62,0,1.26,0,1.88V119.1a3.05,3.05,0,0,0,1,2.69,3.86,3.86,0,0,0,2.58.54h12.72A.63.63,0,0,0,121.52,121.08Z"/><path class="cls-2" d="M148.2,121.08H135.1c-1,0-1.89-.18-2-1.38,0-.6,0-1.22,0-1.82V106.13a7.68,7.68,0,0,1,0-1.66c.29-1.16,1.43-1,2.34-1H147c.67,0,1.56-.14,2.11.32s.48,1.44.48,2.18v12.67c0,1.06.11,2.4-1.37,2.49-.8,0-.81,1.3,0,1.25,3-.19,2.62-3.27,2.62-5.43v-9.15c0-2,.49-5.18-2.29-5.55a14.7,14.7,0,0,0-2.1,0h-4.34c-2.49,0-5,0-7.47,0a2.7,2.7,0,0,0-2.77,2.63c0,.62,0,1.26,0,1.88V119.1a3.06,3.06,0,0,0,1.05,2.69,3.86,3.86,0,0,0,2.58.54H148.2A.63.63,0,0,0,148.2,121.08Z"/><path class="cls-2" d="M174.48,121.08h-13.1c-1,0-1.89-.18-2-1.38-.06-.6,0-1.22,0-1.82V106.13a7.68,7.68,0,0,1,0-1.66c.29-1.16,1.43-1,2.34-1h11.5c.67,0,1.56-.14,2.11.32s.49,1.44.49,2.18v12.67c0,1.06.1,2.4-1.38,2.49-.8,0-.8,1.3,0,1.25,3-.19,2.63-3.27,2.63-5.43v-9.15c0-2,.48-5.18-2.3-5.55a14.7,14.7,0,0,0-2.1,0h-4.34c-2.48,0-5,0-7.47,0a2.69,2.69,0,0,0-2.76,2.63c0,.62,0,1.26,0,1.88V119.1a3.05,3.05,0,0,0,1,2.69,3.86,3.86,0,0,0,2.58.54h12.72A.63.63,0,0,0,174.48,121.08Z"/><path class="cls-3" d="M95.24,152.94H82.14c-1,0-1.89-.19-2-1.39,0-.59,0-1.22,0-1.81V138a7.76,7.76,0,0,1,0-1.67c.29-1.15,1.43-1,2.34-1H94c.67,0,1.56-.13,2.11.33s.48,1.44.48,2.17v12.67c0,1.06.11,2.41-1.37,2.5-.8.05-.81,1.3,0,1.25,3-.19,2.62-3.27,2.62-5.43v-9.15c0-2,.49-5.19-2.29-5.56a16.33,16.33,0,0,0-2.1,0H89.13c-2.49,0-5-.05-7.47,0a2.7,2.7,0,0,0-2.77,2.63c0,.63,0,1.26,0,1.89V151a3.1,3.1,0,0,0,1,2.7,4,4,0,0,0,2.59.54H95.24A.63.63,0,0,0,95.24,152.94Z"/><path class="cls-3" d="M121.72,152.94h-13.1c-1,0-1.89-.19-2-1.39-.05-.59,0-1.22,0-1.81V138a7.76,7.76,0,0,1,0-1.67c.29-1.15,1.43-1,2.34-1h11.5c.67,0,1.56-.13,2.11.33s.48,1.44.48,2.17v12.67c0,1.06.11,2.41-1.37,2.5-.8.05-.81,1.3,0,1.25,3-.19,2.62-3.27,2.62-5.43v-9.15c0-2,.49-5.19-2.29-5.56a16.33,16.33,0,0,0-2.1,0h-4.34c-2.49,0-5-.05-7.47,0a2.7,2.7,0,0,0-2.77,2.63c0,.63,0,1.26,0,1.89V151a3.1,3.1,0,0,0,1,2.7,4,4,0,0,0,2.59.54h12.72A.63.63,0,0,0,121.72,152.94Z"/><path class="cls-3" d="M148.4,152.94H135.3c-1,0-1.89-.19-2-1.39-.05-.59,0-1.22,0-1.81V138a7.17,7.17,0,0,1,0-1.67c.29-1.15,1.43-1,2.34-1h11.5c.67,0,1.56-.13,2.11.33s.48,1.44.48,2.17v12.67c0,1.06.11,2.41-1.37,2.5-.8.05-.81,1.3,0,1.25,3-.19,2.62-3.27,2.62-5.43v-9.15c0-2,.49-5.19-2.29-5.56a16.33,16.33,0,0,0-2.1,0h-4.34c-2.49,0-5-.05-7.47,0a2.7,2.7,0,0,0-2.77,2.63c0,.63,0,1.26,0,1.89V151a3.1,3.1,0,0,0,1,2.7,4,4,0,0,0,2.59.54H148.4A.63.63,0,0,0,148.4,152.94Z"/><path class="cls-3" d="M174.68,152.94h-13.1c-1,0-1.89-.19-2-1.39-.05-.59,0-1.22,0-1.81V138a7.76,7.76,0,0,1,0-1.67c.29-1.15,1.43-1,2.34-1h11.5c.67,0,1.56-.13,2.11.33s.48,1.44.48,2.17v12.67c0,1.06.11,2.41-1.37,2.5-.8.05-.8,1.3,0,1.25,3-.19,2.62-3.27,2.62-5.43v-9.15c0-2,.49-5.19-2.29-5.56a16.33,16.33,0,0,0-2.1,0h-4.34c-2.49,0-5-.05-7.47,0a2.7,2.7,0,0,0-2.77,2.63c0,.63,0,1.26,0,1.89V151a3.08,3.08,0,0,0,1,2.7,3.92,3.92,0,0,0,2.58.54h12.72A.63.63,0,0,0,174.68,152.94Z"/><path class="cls-2" d="M95.24,184.79H82.14c-1,0-1.89-.18-2-1.38,0-.6,0-1.22,0-1.82V169.85a7.76,7.76,0,0,1,0-1.67c.29-1.16,1.43-1.05,2.34-1.05H94c.67,0,1.56-.14,2.11.32s.48,1.45.48,2.18V182.3c0,1.06.11,2.4-1.37,2.49-.8.05-.81,1.3,0,1.25,3-.18,2.62-3.27,2.62-5.42v-9.16c0-2,.49-5.18-2.29-5.55a14.7,14.7,0,0,0-2.1,0H89.13c-2.49,0-5,0-7.47,0a2.7,2.7,0,0,0-2.77,2.63c0,.62,0,1.26,0,1.89v12.41a3.07,3.07,0,0,0,1,2.69,3.9,3.9,0,0,0,2.59.54H95.24A.63.63,0,0,0,95.24,184.79Z"/><path class="cls-2" d="M174.68,184.79h-13.1c-1,0-1.89-.18-2-1.38-.05-.6,0-1.22,0-1.82V169.85a7.76,7.76,0,0,1,0-1.67c.29-1.16,1.43-1.05,2.34-1.05h11.5c.67,0,1.56-.14,2.11.32s.48,1.45.48,2.18V182.3c0,1.06.11,2.4-1.37,2.49-.8.05-.8,1.3,0,1.25,3-.18,2.62-3.27,2.62-5.42v-9.16c0-2,.49-5.18-2.29-5.55a14.7,14.7,0,0,0-2.1,0h-4.34c-2.49,0-5,0-7.47,0a2.7,2.7,0,0,0-2.77,2.63c0,.62,0,1.26,0,1.89v12.41a3,3,0,0,0,1,2.69A3.86,3.86,0,0,0,162,186h12.72A.63.63,0,0,0,174.68,184.79Z"/><path class="cls-2" d="M215.1,152.94H202c-1,0-1.89-.19-2-1.39-.05-.59,0-1.22,0-1.81V138a7.17,7.17,0,0,1,0-1.67c.29-1.15,1.43-1,2.34-1h11.5c.66,0,1.56-.13,2.1.33s.49,1.44.49,2.17v12.67c0,1.06.1,2.41-1.37,2.5-.8.05-.81,1.3,0,1.25,3-.19,2.62-3.27,2.62-5.43v-9.15c0-2,.49-5.19-2.29-5.56a16.36,16.36,0,0,0-2.1,0H209c-2.49,0-5-.05-7.47,0a2.7,2.7,0,0,0-2.77,2.63c0,.63,0,1.26,0,1.89V151a3.1,3.1,0,0,0,1,2.7,4,4,0,0,0,2.59.54H215.1A.63.63,0,0,0,215.1,152.94Z"/><path class="cls-2" d="M215.1,184.79H202c-1,0-1.89-.18-2-1.38-.05-.6,0-1.22,0-1.82V169.85a7.17,7.17,0,0,1,0-1.67c.29-1.16,1.43-1.05,2.34-1.05h11.5c.66,0,1.56-.14,2.1.32s.49,1.45.49,2.18V182.3c0,1.06.1,2.4-1.37,2.49-.8.05-.81,1.3,0,1.25,3-.18,2.62-3.27,2.62-5.42v-9.16c0-2,.49-5.18-2.29-5.55a14.72,14.72,0,0,0-2.1,0H209c-2.49,0-5,0-7.47,0a2.7,2.7,0,0,0-2.77,2.63c0,.62,0,1.26,0,1.89v12.41a3.07,3.07,0,0,0,1,2.69,3.9,3.9,0,0,0,2.59.54H215.1A.63.63,0,0,0,215.1,184.79Z"/><path class="cls-2" d="M54.62,152.94H41.52c-1,0-1.88-.19-2-1.39-.06-.59,0-1.22,0-1.81V138a7.17,7.17,0,0,1,0-1.67c.28-1.15,1.42-1,2.33-1H53.41c.66,0,1.56-.13,2.1.33S56,137,56,137.77v12.67c0,1.06.1,2.41-1.38,2.5-.8.05-.8,1.3,0,1.25,3-.19,2.63-3.27,2.63-5.43v-9.15c0-2,.49-5.19-2.29-5.56a16.51,16.51,0,0,0-2.11,0H48.52c-2.49,0-5-.05-7.48,0a2.69,2.69,0,0,0-2.76,2.63c0,.63,0,1.26,0,1.89V151a3.07,3.07,0,0,0,1,2.7,4,4,0,0,0,2.58.54H54.62A.63.63,0,0,0,54.62,152.94Z"/><path class="cls-2" d="M54.62,184.79H41.52c-1,0-1.88-.18-2-1.38-.06-.6,0-1.22,0-1.82V169.85a7.17,7.17,0,0,1,0-1.67c.28-1.16,1.42-1.05,2.33-1.05H53.41c.66,0,1.56-.14,2.1.32s.49,1.45.49,2.18V182.3c0,1.06.1,2.4-1.38,2.49-.8.05-.8,1.3,0,1.25,3-.18,2.63-3.27,2.63-5.42v-9.16c0-2,.49-5.18-2.29-5.55a14.86,14.86,0,0,0-2.11,0H48.52c-2.49,0-5,0-7.48,0a2.69,2.69,0,0,0-2.76,2.63c0,.62,0,1.26,0,1.89v12.41a3,3,0,0,0,1,2.69,3.89,3.89,0,0,0,2.58.54H54.62A.63.63,0,0,0,54.62,184.79Z"/><path class="cls-3" d="M62,204.7H21.43c-2,0-3.74-.71-4.18-2.91-.12-.6-.2-1.21-.3-1.8l-4.43-27-5.78-35.2L5,127.08c-.11-.67-.25-1.34-.33-2a3.49,3.49,0,0,1,3.72-3.92c9.33-.06,18.66,0,28,0H53.59c2.77,0,5.58-.13,8.35,0,3.89.17,3.42,4,3.42,6.66v72.93c0,2.06-1.08,3.88-3.38,4-.8,0-.81,1.29,0,1.25a4.74,4.74,0,0,0,4.63-4.84c0-.88,0-1.76,0-2.64V148.85c0-8,.08-16,0-24.07a4.72,4.72,0,0,0-4-4.83,17.61,17.61,0,0,0-2.62-.06H11.82c-1.19,0-2.37,0-3.55,0a4.72,4.72,0,0,0-4.92,4.58,37.49,37.49,0,0,0,.94,6.14l5.35,32.51,5.43,33.06c.32,2,.58,4,1,6,.94,4.65,6.1,3.81,9.63,3.81H62A.63.63,0,0,0,62,204.7Z"/><path class="cls-3" d="M192,206h43.55c1.34,0,2.79.16,3.68-1.12a5.58,5.58,0,0,0,.64-2.31l4.55-27.71,6.09-37,1.79-10.89c.08-.52.18-1,.25-1.56a4.7,4.7,0,0,0-4.75-5.44c-9.64-.12-19.28,0-28.92,0H200.72c-2.88,0-5.8-.14-8.68,0-3.25.15-2.65,3.84-2.65,6.08V202.8c0,1.66.82,3,2.63,3.15.8.07.8-1.18,0-1.25-1.55-.12-1.38-1.49-1.38-2.57V147c0-8-.2-16,0-24a1.64,1.64,0,0,1,1.66-1.81c1.14-.06,2.3,0,3.44,0h48.95c1.05,0,2.11,0,3.16,0a3.46,3.46,0,0,1,3.49,4c-.34,2.45-.81,4.89-1.21,7.33l-5.55,33.81-5.26,32-.64,3.92c-.14.85-.16,2.06-1.12,2.41a9.51,9.51,0,0,1-2.87.07H192A.63.63,0,0,0,192,206Z"/><path class="cls-3" d="M186.24,204.7H71.73a6.78,6.78,0,0,0-1.56,0,.74.74,0,0,1-.21,0l.63.63V94.19c0-2.51-.84-7.31,2-8.58a7.21,7.21,0,0,1,3-.31H180.72a5.69,5.69,0,0,1,3.4.58c1.5,1,1.49,2.52,1.49,4.06V205.33a.63.63,0,0,0,1.25,0V93.42c0-3,.71-7.2-2.53-8.86a7.27,7.27,0,0,0-3.51-.51H75.29a6.54,6.54,0,0,0-3.85.75c-1.68,1.1-2.1,2.87-2.1,4.72V205.33A.62.62,0,0,0,70,206H181.48c1.5,0,3.06.12,4.55,0h.21A.63.63,0,0,0,186.24,204.7Z"/><path class="cls-3" d="M179,69.76H78.7a5.16,5.16,0,0,0-1.36,0h-.18l.63.62V50.67l-.63.63H177.5a5.63,5.63,0,0,0,1.36,0s.12,0,.18,0l-.63-.63V70.38a.63.63,0,0,0,1.25,0V50.67a.63.63,0,0,0-.62-.62H81.32c-1.3,0-2.67-.12-4,0h-.18a.63.63,0,0,0-.62.62V70.38a.63.63,0,0,0,.62.63h97.71c1.31,0,2.68.11,4,0a1.08,1.08,0,0,1,.18,0A.63.63,0,0,0,179,69.76Z"/><text class="cls-4" transform="translate(80.5 63.67) scale(0.99 1)"><tspan class="cls-5">H</tspan><tspan class="cls-6" x="6.76" y="0">I</tspan><tspan class="cls-7" x="9.65" y="0">G</tspan><tspan class="cls-8" x="16.16" y="0">H</tspan><tspan class="cls-9" x="22.8" y="0">E</tspan><tspan class="cls-10" x="28.7" y="0">R</tspan><tspan class="cls-11" x="35.11" y="0"> </tspan><tspan class="cls-10" x="37.46" y="0">S</tspan><tspan class="cls-9" x="43.06" y="0">E</tspan><tspan class="cls-12" x="48.97" y="0">C</tspan><tspan class="cls-13" x="55.75" y="0">O</tspan><tspan class="cls-8" x="63.43" y="0">ND</tspan><tspan class="cls-14" x="77.25" y="0">A</tspan><tspan class="cls-15" x="84.14" y="0">R</tspan><tspan x="90.55" y="0">Y</tspan></text><rect class="cls-16" x="85.13" y="70.38" width="3.25" height="14.29"/><rect class="cls-16" x="168.3" y="70.38" width="3.25" height="14.29"/></svg>