<svg xmlns="http://www.w3.org/2000/svg" width="26" height="19.355" viewBox="0 0 26 19.355"><defs><style>.a{fill:#375aa8;}</style></defs><g transform="translate(-0.407 -4.905)"><g transform="translate(0.407 4.905)"><path class="a" d="M4.334,11.893c.582,2.222,2.46,4.27,4.839,4.27,2.415,0,4.323-2.038,4.919-4.255a.482.482,0,0,0,.435-.435L14.6,10.6a.482.482,0,0,0-.332-.5c0-.052-.005-.106-.011-.157-.045-2.007-.393-3.628-1.973-4.3a5.636,5.636,0,0,0-4.217-.3c-.071.028-.254.271-.325.315s-.45-.081-.593-.047C4.785,5.956,4,8.186,4.176,9.925c-.005.049-.009.1-.012.147a.482.482,0,0,0-.372.507l.075.876A.484.484,0,0,0,4.334,11.893Zm.5-1.735c1.036-.38,3.03-1.173,3.246-1.59.907.942,4.108,1.471,5.514,1.647.006.091.014.18.014.271,0,2.311-1.939,5-4.439,5s-4.352-2.638-4.352-5C4.821,10.376,4.829,10.268,4.838,10.159Z" transform="translate(-1.305 -5.068)"/><path class="a" d="M11.681,20.774a.647.647,0,0,0-.326.041l-1.994,2.7L7.849,22.305l-.009.008v.009l0,0L6.325,23.526l-1.994-2.7A.638.638,0,0,0,4,20.788c-3.766.531-4,9.038-4,9.038l7.847.005v-.014l7.839-.005S15.447,21.3,11.681,20.774Z" transform="translate(0 -10.475)"/><path class="a" d="M23.766,12.394a4.376,4.376,0,0,0,3.925,3.462,4.426,4.426,0,0,0,3.99-3.451.391.391,0,0,0,.353-.352l.061-.71a.391.391,0,0,0-.269-.4c0-.041,0-.085-.009-.127-.036-1.628-.319-2.944-1.6-3.486a4.573,4.573,0,0,0-3.42-.241c-.057.023-.205.22-.263.257s-.365-.066-.481-.039A3,3,0,0,0,23.639,10.8c0,.04-.007.079-.01.119a.391.391,0,0,0-.3.411l.06.71A.391.391,0,0,0,23.766,12.394Zm.408-1.408A8.825,8.825,0,0,0,26.808,9.7c.736.763,3.333,1.192,4.472,1.337.005.072.012.146.012.22,0,1.874-1.572,4.053-3.6,4.053s-3.53-2.14-3.53-4.053C24.161,11.163,24.167,11.075,24.175,10.986Z" transform="translate(-8.034 -5.685)"/><path class="a" d="M30.293,19.6a.52.52,0,0,0-.264.033l-1.618,2.188-1.227-.978-.007.006v.007h0l-1.227.978-1.618-2.188a.523.523,0,0,0-.264-.033A3.058,3.058,0,0,0,21.9,21.634a10.465,10.465,0,0,1,1.023,2.058,16.417,16.417,0,0,1,.707,3.25l3.555,0v-.012l6.359,0S33.348,20.026,30.293,19.6Z" transform="translate(-7.543 -10.071)"/></g></g></svg>