<svg xmlns="http://www.w3.org/2000/svg" width="20.125" height="24" viewBox="0 0 20.125 24"><defs><style>.a{fill:#375aa8;}</style></defs><g transform="translate(-0.001 0.001)"><g transform="translate(0)"><g transform="translate(0)"><path class="a" d="M86.383,4.152c.232.13,1.791.884,2.544,1.247,0,.292.009.8.019.807.083.724.226,1.529.267,1.756-.068.038-.421.268-.421.984v.012c0,.019,0,.038,0,.057.152,1.99.943,1.133,1.106,2a4.331,4.331,0,0,0,2.354,2.86,3.326,3.326,0,0,0,2.873,0,4.332,4.332,0,0,0,2.354-2.86c.163-.872.955-.014,1.106-2,0-.02,0-.038,0-.057V8.945c0-.716-.352-.946-.421-.984.041-.227.184-1.032.267-1.756.01-.009.016-.514.019-.807.414-.2,1.07-.516,1.617-.783V6.539a.495.495,0,0,0-.05.838s-.22,1.234-.29,1.6,1.252.29,1.192,0-.29-1.6-.29-1.6a.5.5,0,0,0-.05-.838V4.364c.2-.1.355-.178.416-.212.164-.092.252-.21.234-.333.022-.128-.07-.265-.318-.387C99.141,2.565,94.627.357,94.181.144a.912.912,0,0,0-.983,0c-.446.213-4.96,2.422-6.731,3.288-.248.121-.341.259-.318.387C86.131,3.941,86.219,4.059,86.383,4.152Z" transform="translate(-83.627)"/><path class="a" d="M53.524,295.976a22.2,22.2,0,0,1-2.531-1.3.435.435,0,0,0-.613.191c-.687,1.15-1.96,4.493-2.848,4.555l-.017,0-.017,0c-.888-.062-2.162-3.405-2.848-4.555a.435.435,0,0,0-.613-.191,22.2,22.2,0,0,1-2.531,1.3c-2.8,1.008-4.053,2.036-4.053,2.737v4.662H57.577v-4.662C57.577,298.012,56.319,296.984,53.524,295.976Z" transform="translate(-37.452 -279.375)"/></g></g></g></svg>