<svg id="Layer_1" data-name="Layer 1" xmlns="http://www.w3.org/2000/svg" viewBox="0 0 256 256"><defs><style>.cls-1{fill:#58595b;}.cls-2{fill:#00a79d;}</style></defs><path class="cls-1" d="M101.35,157.81c0,3.12.08,6.26.31,9.37.32,4.47.58,9.67,2.71,13.72.75,1.43,1.95,2.63,3.68,2.33.79-.14.46-1.34-.33-1.2-1.26.22-2-1.25-2.48-2.19a23.52,23.52,0,0,1-1.58-6,91.37,91.37,0,0,1-1-13.12c0-1,0-2,0-2.95a.63.63,0,0,0-1.25,0Z"/><path class="cls-1" d="M102.06,170.92a49.57,49.57,0,0,0,2,23.78,29.88,29.88,0,0,0,4.86,8.76c.5.62,1.38-.27.88-.89-6.38-7.88-7.62-19-6.83-28.81.07-.84.15-1.76.27-2.51s-1.08-1.13-1.21-.33Z"/><path class="cls-1" d="M104.77,196.48c-1.37,7.21-.74,15.62,2.65,22.18a20.54,20.54,0,0,0,6.17,7.21c.65.48,1.27-.6.63-1.08-7.88-5.77-9.45-16.49-8.56-25.6a23.83,23.83,0,0,1,.31-2.38c.15-.79-1-1.12-1.2-.33Z"/><path class="cls-1" d="M111.79,224.14l.17,4.75.1,2.8a3.28,3.28,0,0,0,.56,2.06c1,1.22,2.66.95,4,1l6.47,0,4.51,0a.64.64,0,0,0,.62-.63l-.54-15-.08-2.17a.63.63,0,0,0-1.25,0,16.69,16.69,0,0,1-2.06,7.68.63.63,0,0,0,1.08.63,18.07,18.07,0,0,0,2.23-8.31h-1.25l.54,15.05.08,2.17.63-.62-9.54-.07c-1.17,0-2.39.09-3.55,0-1.71-.17-1.28-2.94-1.32-4.14l-.19-5.17c0-.8-1.28-.81-1.25,0Z"/><path class="cls-1" d="M127.64,216.94l1.14-20.7.17-3c.05-.82-1.15-.77-1.25,0,0-.3,0,.11,0,.19l-.12.78c-.15.85-.32,1.7-.51,2.54a35.65,35.65,0,0,1-2.31,7.14c-.33.73.75,1.36,1.08.63A39.45,39.45,0,0,0,129,193.26H127.7L126.55,214l-.16,3c0,.8,1.2.8,1.25,0Z"/><path class="cls-1" d="M128.24,162.64c0,.09-.05-.16,0,.09s.15.43.21.65a22.12,22.12,0,0,1,.61,2.91,62.72,62.72,0,0,1,.22,13.35c-.3,4.51-.88,9-1.6,13.45-.12.79,1.08,1.13,1.21.33a121.94,121.94,0,0,0,1.86-21,36.93,36.93,0,0,0-1-9.14,7.3,7.3,0,0,0-.45-1.29c-.34-.73-1.42-.1-1.08.63Z"/><path class="cls-1" d="M127.22,202.51a18.12,18.12,0,0,0,1.57,4,18.31,18.31,0,0,0,5.8,6.82c.67.46,1.29-.62.64-1.08a18.89,18.89,0,0,1-6.81-10.1c-.18-.78-1.39-.45-1.2.33Z"/><path class="cls-1" d="M126.65,222.23a11.66,11.66,0,0,0,.76,1.28,15.16,15.16,0,0,0,2.29,2.7,12,12,0,0,0,2,1.44.63.63,0,0,0,.63-1.08,11,11,0,0,1-2.86-2.46,11.39,11.39,0,0,1-.87-1.14c-.21-.3-.4-.61-.58-.93-.08-.15-.17-.29-.24-.44a.62.62,0,0,0-.85-.23.65.65,0,0,0-.23.86Z"/><path class="cls-1" d="M151.25,160c-.72,8.59-2.89,17.39-7.28,24.85a.63.63,0,0,0,1.08.63c4.51-7.66,6.72-16.67,7.45-25.48.06-.8-1.19-.8-1.25,0Z"/><path class="cls-1" d="M149.41,171.38a41.34,41.34,0,0,1,.92,10,67.44,67.44,0,0,1-5,24.76c-.3.75.91,1.07,1.21.34,4.16-10.39,6.16-22,4.51-33.17-.11-.75-.23-1.51-.41-2.24a.63.63,0,0,0-1.21.33Z"/><path class="cls-1" d="M147,201.8a17.82,17.82,0,0,1,.54,4.83,36.9,36.9,0,0,1-2.27,12.68c-.5,1.39-1.06,2.76-1.68,4.1-.36.76-.73,1.5-1.12,2.24a12.07,12.07,0,0,0-1.29,2.32,1.85,1.85,0,0,0,.23,1.21,7.73,7.73,0,0,1,.61,2.75c0,.49,0,1-.3,1.1a4.42,4.42,0,0,1-1.26,0l-4.45.16-8.38.31c-.81,0-.81,1.28,0,1.25l11.47-.42c1.08,0,2.91.3,3.67-.68,1.18-1.54.19-4.17-.51-5.72v.63a45.38,45.38,0,0,0,6.45-19.34,23,23,0,0,0-.5-7.8.63.63,0,0,0-1.21.34Z"/><path class="cls-1" d="M113.37,234.07l-1.43,4.71a26.57,26.57,0,0,0-1.14,4.57c-.31,2.54.37,5.36,2.71,6.74a7,7,0,0,0,6.75-.12,12.45,12.45,0,0,0,5-6,18.93,18.93,0,0,0,1.64-9.84c-.08-.79-1.33-.8-1.25,0,.49,4.81-.92,10.53-4.7,13.81a6.18,6.18,0,0,1-6.08,1.37c-2.45-.88-3.13-3.55-2.83-5.91a26.56,26.56,0,0,1,1.15-4.46l1.39-4.57a.63.63,0,0,0-1.21-.33Z"/><path class="cls-1" d="M129.47,234.46c.07,3.1-1.25,6-1.35,9.1-.08,2.42.61,5,2.73,6.44a6.74,6.74,0,0,0,6.57.2,9,9,0,0,0,4.39-5.86c.93-3.45.24-7-.54-10.44-.17-.78-1.38-.45-1.2.33,1.05,4.64,2.11,11.19-2.47,14.41a5.61,5.61,0,0,1-5.86.44c-2-1.18-2.48-3.7-2.35-5.86.18-3,1.4-5.76,1.33-8.76a.63.63,0,0,0-1.25,0Z"/><path class="cls-1" d="M111.94,239.41a13.2,13.2,0,0,0,8.22,2.29c2.51-.16,5.4-1,6.56-3.49.34-.73-.74-1.36-1.08-.63-1,2.18-3.72,2.83-5.94,2.89a12,12,0,0,1-7.13-2.14c-.67-.45-1.29.63-.63,1.08Z"/><path class="cls-1" d="M128.66,238.83a9.47,9.47,0,0,0,10.57,2.24,5.36,5.36,0,0,0,1.74-.95,4.15,4.15,0,0,0,.47-.82l.58-1.09c.38-.71-.7-1.34-1.08-.63a9.56,9.56,0,0,1-.85,1.58,3.53,3.53,0,0,1-1.39.78,8.2,8.2,0,0,1-9.15-2c-.56-.58-1.45.31-.89.89Z"/><path class="cls-2" d="M111.83,53.36A8.9,8.9,0,0,0,110.68,56a12.39,12.39,0,0,0,0,6.59.62.62,0,0,0,1.2-.33,11.09,11.09,0,0,1,0-6,7.71,7.71,0,0,1,1-2.23c.46-.66-.62-1.28-1.08-.63Z"/><path class="cls-2" d="M115.18,54.16a8.5,8.5,0,0,0-.82,2.88,25.76,25.76,0,0,0,.52,8.92c.17.78,1.37.45,1.21-.34a23.66,23.66,0,0,1-.51-8.34,10.84,10.84,0,0,1,.46-2c0-.1.07-.2.11-.31s-.05.11,0-.06a.89.89,0,0,1,.08-.17.63.63,0,0,0-1.08-.63Z"/><path class="cls-2" d="M125.57,71.21c.26.46.54.92.83,1.37a14.52,14.52,0,0,0,1.65,2.26.62.62,0,1,0,.88-.88c-.14-.15-.26-.3-.39-.46l0-.06c0,.07.06.07,0,0l-.11-.14-.18-.26c-.27-.38-.52-.76-.77-1.15s-.54-.88-.8-1.33a.62.62,0,0,0-.86-.22.64.64,0,0,0-.22.85Z"/><path class="cls-2" d="M141.22,53.43a10.16,10.16,0,0,1,1,2.11A13.29,13.29,0,0,1,143,61c-.06.81,1.19.8,1.25,0a14.21,14.21,0,0,0-.81-5.78,11.74,11.74,0,0,0-1.12-2.41c-.43-.68-1.52,0-1.08.63Z"/><path class="cls-2" d="M145.29,53.7c0,.06.1.24,0,0,.05.12.09.23.14.34.15.37.3.73.44,1.1s.32.83.46,1.25a5.21,5.21,0,0,1,.25,1,.63.63,0,0,0,.77.44.65.65,0,0,0,.44-.77,5.68,5.68,0,0,0-.27-1c-.14-.42-.3-.84-.46-1.26s-.45-1.13-.69-1.68a.62.62,0,0,0-.86-.23.65.65,0,0,0-.22.86Z"/><path class="cls-2" d="M102.54,101.43c-.58,2.56-1.55,5-2.17,7.55-.3,1.27-.58,2.56-.87,3.83q-1.09,4.68-2.32,9.33a169.78,169.78,0,0,1-6.74,21.14,34.15,34.15,0,0,1-4.56,8.53c-.22.28-.28.81.13,1a128.94,128.94,0,0,0,21.24,6.86c13.58,3.28,28.28,5,42,1.68a42.21,42.21,0,0,0,20.85-11.65.65.65,0,0,0,.09-.76c-1.71-3.18-3.19-6.5-4.6-9.82a152.05,152.05,0,0,1-8.07-24.35c-.62-2.62-1.12-5.25-1.61-7.9a25.45,25.45,0,0,0-1.19-3.44c-.26-.75-1.47-.43-1.21.34a27.7,27.7,0,0,1,1.09,2.87c.49,2.31.84,4.64,1.36,6.94a139.83,139.83,0,0,0,3.85,13.77,159.52,159.52,0,0,0,7.58,18.78c.55,1.15,1.11,2.31,1.73,3.44l.09-.76c-10.15,10.7-25.22,13.56-39.42,13-12.25-.52-24.41-3.34-36-7.32q-2.67-.92-5.3-1.94l-1.5-.61-.4-.16.13,1a31.77,31.77,0,0,0,4.06-7.18,105.51,105.51,0,0,0,3.76-10.05c2.27-6.93,4.14-14,5.82-21.1.34-1.41.66-2.82,1-4.24.64-2.83,1.71-5.53,2.35-8.36.18-.79-1-1.12-1.2-.34Z"/><path class="cls-1" d="M158,102.06a57.06,57.06,0,0,0,.72,20.35c.17.79,1.38.46,1.21-.33a55.76,55.76,0,0,1-.73-19.69c.12-.79-1.08-1.13-1.2-.33Z"/><path class="cls-1" d="M95.22,99.85l-2,15.89-1,7.58c0,.17,0,.34-.07.51.06-.35-.06.31-.08.43q-.37,2.17-.69,4.35c-.64,4.44-1.45,9.22-.76,13.69.13.79,1.33.46,1.21-.33-.63-4.05.11-8.47.67-12.49.28-2,.67-3.92.93-5.89.77-5.77,1.47-11.55,2.21-17.33l.81-6.41c.1-.79-1.15-.78-1.25,0Z"/><path class="cls-1" d="M90.63,154c-2.29,7.29-2.82,15.38-2.71,23a.61.61,0,0,0,.31.54l3.92,1.67c.73.31,1.37-.77.63-1.08l-3.92-1.67.31.54c-.11-7.48.4-15.43,2.67-22.62.24-.77-1-1.1-1.21-.34Z"/><path class="cls-1" d="M93.52,165.79l-1.65,19-.24,2.75a.63.63,0,0,0,.62.62l10.21-.37c.8,0,.81-1.28,0-1.25L92.25,187l.63.63,1.65-19.05.24-2.74c.07-.8-1.18-.8-1.25,0Z"/><path class="cls-1" d="M160.29,156.12a57.1,57.1,0,0,0,0,9.43,61.26,61.26,0,0,0,4.26,19.55l.6-.79-5.66.2c-1.1,0-2.58.06-3.23,1.14-1,1.63,1.5,2.89,2.66,3.43.49.23,1.21.52.83.95-.67.79-2.39,1-3.36,1.14-2,.28-5.54.48-6.65,2.55-.38.71.7,1.34,1.08.63.51-1,2-1.25,3-1.48a27.9,27.9,0,0,1,2.88-.48c1.23-.16,4.67-.81,4.51-2.68-.11-1.24-1.58-1.58-2.47-2.05-.29-.16-1.45-.84-1.4-1.26s.46-.4.71-.49.7-.14.37-.11c.22,0,.44,0,.66,0l6.09-.22c.36,0,.76-.4.6-.79a60.48,60.48,0,0,1-4.23-19.56,56.31,56.31,0,0,1,.07-9.09c.08-.8-1.17-.8-1.25,0Z"/><path class="cls-2" d="M110.55,81.93a26.3,26.3,0,0,0,1-5.29.64.64,0,0,0-.63-.62.63.63,0,0,0-.62.62,24.58,24.58,0,0,1-1,5,.62.62,0,0,0,1.2.33Z"/><path class="cls-1" d="M97.65,75.81c-1.74,4.92-3.76,9.93-4.57,15.12-.48,3.08-1.5,6.89,2.06,8.58a29.19,29.19,0,0,0,5.08,1.63,58.19,58.19,0,0,0,15.41,1.9c1.41,0,2.68.27,3.57-.87,2.58-3.3,2.82-7.74,2-11.68a.64.64,0,0,0-.6-.46l-13.94-.86.54,1a33,33,0,0,0,3.07-7.39A.63.63,0,0,0,109,82.4a31.14,31.14,0,0,1-2.94,7.08.63.63,0,0,0,.54.94l13.94.86-.6-.46c.76,3.45.6,7.27-1.48,10.25a2.57,2.57,0,0,1-.54.68c-.05,0-.07.11-.12.13.42-.18-1.72-.19-.53-.13-.47,0-1,0-1.42,0a57.91,57.91,0,0,1-7.45-.37A54.93,54.93,0,0,1,97,98.85c-2-.68-3.45-1.88-3.19-4.18.13-1.14.35-2.28.53-3.41.8-5.19,2.82-10.19,4.57-15.12.27-.76-.94-1.09-1.21-.33Z"/><path class="cls-2" d="M105.16,55.5q-3.87,10.11-7.51,20.31c-.27.76.94,1.08,1.21.33q3.63-10.2,7.5-20.3c.29-.76-.92-1.08-1.2-.34Z"/><path class="cls-1" d="M107.36,87.4a12.21,12.21,0,0,0-8.58,4.1c-.51.61.37,1.5.88.88a10.34,10.34,0,0,1,5-3.19,15.39,15.39,0,0,1,2-.46s.26,0,.09,0l.13,0,.26,0,.24,0c.8,0,.8-1.28,0-1.25Z"/><path class="cls-1" d="M106.29,89.26a12.4,12.4,0,0,0-1,.68,8.67,8.67,0,0,0-1.82,1.59,2.87,2.87,0,0,0-.64,1.19.63.63,0,0,0,1.21.33,1.46,1.46,0,0,1,0-.2s0,0,0,0,0,.07,0,.07a.45.45,0,0,0,.06-.12l.12-.2.07-.09s.1-.15,0-.06l.05-.06.08-.09.19-.21a4.86,4.86,0,0,1,.41-.38c.14-.13.29-.25.44-.37s-.08.06,0,0l.11-.08.23-.17.72-.48.36-.22a.64.64,0,0,0,.23-.86.65.65,0,0,0-.86-.22Z"/><path class="cls-2" d="M97.72,76.29A5.14,5.14,0,0,0,99,77.75a18.86,18.86,0,0,0,5.13,3.09,43.51,43.51,0,0,0,5.56,1.93.62.62,0,0,0,.33-1.2,33.21,33.21,0,0,1-8-3.22A11.18,11.18,0,0,1,99,76c-.09-.11,0,.07,0,0a.61.61,0,0,1-.07-.1l-.09-.13a.75.75,0,0,1-.07-.12c-.36-.72-1.44-.09-1.08.63Z"/><path class="cls-2" d="M148.37,79.44c-.33-1.91-.6-3.83-.84-5.76a.64.64,0,0,0-.62-.62.63.63,0,0,0-.63.62c.25,2,.53,4.07.89,6.09a.62.62,0,0,0,1.2-.33Z"/><path class="cls-1" d="M158.57,74.7a77.79,77.79,0,0,1,2.25,9.15c.34,1.91.42,3.82.66,5.73a21.93,21.93,0,0,1,0,5.78c-.42,2.89-1.72,5.78-4.57,7-2.17.91-4.92.8-7.23.89-4.05.16-8.55.43-12.46-.82l.46.6-.44-11.91-.62.63,11.19-.81c1.3-.09,3.5-.06,3.07-2-.25-1.17-.87-2.32-1.2-3.48a54.87,54.87,0,0,1-1.35-5.94c-.14-.79-1.34-.46-1.2.33a45.22,45.22,0,0,0,2.28,8.71c.33.84.17,1-.59,1.11l-2.26.16-9.94.72a.64.64,0,0,0-.63.62l.44,11.91a.62.62,0,0,0,.46.6c3.72,1.19,8,1,11.82.9,2.54-.07,5.44,0,7.9-.73,5.76-1.8,6.77-8.59,6.14-13.79-.19-1.56-.26-3.13-.48-4.69a73.4,73.4,0,0,0-2.54-10.93c-.23-.76-1.44-.44-1.2.34Z"/><path class="cls-2" d="M151.14,55.6a135.8,135.8,0,0,1,7.43,19.1c.23.76,1.44.44,1.2-.34A139.83,139.83,0,0,0,152.22,55c-.35-.72-1.43-.09-1.08.64Z"/><path class="cls-1" d="M150.11,90.58a16.77,16.77,0,0,0,2.34,1.48,7.41,7.41,0,0,0,4.5,1.12.63.63,0,0,0,.44-.77.63.63,0,0,0-.77-.43c.09,0-.14,0-.17,0a1.47,1.47,0,0,1-.21,0h-.4a5.4,5.4,0,0,1-1-.24,11.33,11.33,0,0,1-1.92-.85,16.6,16.6,0,0,1-2.14-1.38.63.63,0,0,0-.85.23.64.64,0,0,0,.22.85Z"/><path class="cls-1" d="M120.08,56.38a10.82,10.82,0,0,0,9,2.61c2.84-.32,5.86-1.2,7.72-3.52.5-.62-.38-1.51-.88-.89-1.66,2.07-4.3,2.87-6.84,3.16-3,.35-5.84-.14-8.08-2.24-.59-.55-1.48.33-.89.88Z"/><path class="cls-2" d="M147.63,79.73c4.35-.36,8.75-1.71,12-4.76.59-.55-.3-1.43-.88-.88-3,2.8-7.09,4-11.1,4.39-.79.07-.8,1.32,0,1.25Z"/><path class="cls-1" d="M113.71,22.52a72.64,72.64,0,0,0,1,11c.61,3.7,1.58,7.42,4.33,10.12a14.86,14.86,0,0,0,7.33,3.93,11.24,11.24,0,0,0,4.47-.28,11.5,11.5,0,0,0,6.76-4.06,23.06,23.06,0,0,0,2.69-5.62,35.63,35.63,0,0,0,1.57-7.29,73.35,73.35,0,0,0,.58-12.48.64.64,0,0,0-1.07-.44c.23-.18-.26.18-.35.24-.39.26-.79.5-1.2.73a27,27,0,0,1-5,2.15c-6.57,2.1-13.6,2.22-20.39,1.36-.8-.1-.79,1.15,0,1.25,7,.88,14.23.72,20.95-1.48a22.2,22.2,0,0,0,6.91-3.37l-1.06-.44A68.66,68.66,0,0,1,140,33.6a26.6,26.6,0,0,1-3,8,9.17,9.17,0,0,1-4.82,4,12.13,12.13,0,0,1-5.33.85,12.64,12.64,0,0,1-6.53-3.16c-2.65-2.34-3.68-5.49-4.33-8.89A67.16,67.16,0,0,1,115,22.52.63.63,0,0,0,113.71,22.52Z"/><path class="cls-1" d="M141.64,26.49a3.52,3.52,0,0,1,2.61.94,3.4,3.4,0,0,1,.78,2.34c0,2.23-2.5,3.35-4.42,3.36a.63.63,0,0,0,0,1.25c2.08,0,4.38-1,5.29-3a4.54,4.54,0,0,0-1-5.11,4.91,4.91,0,0,0-3.24-1.07.63.63,0,0,0,0,1.25Z"/><path class="cls-1" d="M115,33.13c-1.68,0-3.84-1.1-3.9-3a3.39,3.39,0,0,1,3.34-3.47.63.63,0,0,0,0-1.25,4.66,4.66,0,0,0-4.34,3.11,4.16,4.16,0,0,0,1.79,4.95,5.83,5.83,0,0,0,3.11.92.63.63,0,0,0,0-1.25Z"/><path class="cls-1" d="M119.55,54.58c1.67-2.9,2-6.75,2.08-10a.62.62,0,0,0-.45-.6,22.18,22.18,0,0,1-5.19-2,13,13,0,0,1-4.82-6.24,8.91,8.91,0,0,1-.53-1.66c0-.21,0,.23,0,0a5.23,5.23,0,0,1,0-.56v-12a34.24,34.24,0,0,1,0-3.51,13.11,13.11,0,0,1,8.92-10.72,18.63,18.63,0,0,1,6-.86H132a9.6,9.6,0,0,1,2.48.16,16.08,16.08,0,0,1,5.58,2.43,12.9,12.9,0,0,1,3.32,3.31,6.5,6.5,0,0,1,1.18,2.23,31.37,31.37,0,0,1,.19,4.55l.29,6.8a36.5,36.5,0,0,1,.05,7.24,14.75,14.75,0,0,1-2.68,6.75c-1.52,2-3.4,2.72-5.61,3.64l-2,.83a.65.65,0,0,0-.44.77c.44,2.89,1,6.12,2.41,8.7a.63.63,0,0,0,1.08-.63c-1.39-2.47-1.86-5.63-2.28-8.4l-.44.77c1.62-.68,3.29-1.29,4.88-2a11.3,11.3,0,0,0,5.19-6.08A19.18,19.18,0,0,0,146.41,29l-.55-13.31a14.33,14.33,0,0,0-.06-1.47,8.29,8.29,0,0,0-1.74-3.2,15.39,15.39,0,0,0-6.45-4.87A13.09,13.09,0,0,0,133.68,5c-1.68-.12-3.42,0-5.11,0a36.61,36.61,0,0,0-7.25.35,14.59,14.59,0,0,0-10.5,7.83,13.07,13.07,0,0,0-1.42,5.53V31.82a13,13,0,0,0,.07,2.65,13.63,13.63,0,0,0,8.88,9.85l2.49.82-.46-.6c-.09,3.07-.35,6.7-1.91,9.41a.63.63,0,0,0,1.08.63Z"/><path class="cls-1" d="M109.7,34.37a5.48,5.48,0,0,0-2.54,6.35,7.42,7.42,0,0,0,.45,1.22,2.65,2.65,0,0,0,.66,1.05,8.7,8.7,0,0,0,2.55,1.27,5.4,5.4,0,0,0,5.34-1c.61-.53-.28-1.41-.88-.88-1.86,1.64-4.59.93-6.39-.45l.22.22a5,5,0,0,1-.35-5.11,4.64,4.64,0,0,1,1.07-1.21l.13-.11c-.15.12,0,0,0,0l.17-.12.19-.12c.7-.39.07-1.47-.64-1.07Z"/><path class="cls-1" d="M107.48,39.47c-3.51,1.21-7.26,3.81-8.48,7.46a7.93,7.93,0,0,0-.15,4.32c.16.65.53.76,1.09.89a9.21,9.21,0,0,0,5.07-.25c3.5-1.2,5.75-4.35,7.14-7.63.31-.74-.77-1.37-1.08-.63-1.17,2.77-2.93,5.51-5.76,6.81a8.34,8.34,0,0,1-4.66.58,5.11,5.11,0,0,1-1-.25l.43.44a7.05,7.05,0,0,1,1.79-6.74,15.49,15.49,0,0,1,4.81-3.35,9.54,9.54,0,0,1,1.09-.44c.75-.27.43-1.47-.34-1.21Z"/><path class="cls-1" d="M145.21,34.52a6.54,6.54,0,0,1,2.32,3.86,4.07,4.07,0,0,1-1.09,3.28,4.9,4.9,0,0,1-1.64,1.09,4,4,0,0,1-4.13-.61.65.65,0,0,0-.89,0,.63.63,0,0,0,0,.88,5.27,5.27,0,0,0,4.75,1.14,6.56,6.56,0,0,0,2.68-1.51,5.34,5.34,0,0,0,1.6-3.55,6.26,6.26,0,0,0-1.14-3.64,8.89,8.89,0,0,0-1.58-1.83c-.61-.51-1.5.37-.88.89Z"/><path class="cls-1" d="M148,40.36a11.35,11.35,0,0,1,2.89,1.31,10,10,0,0,1,4.33,4.88,9.82,9.82,0,0,1,.43,5l.44-.43c-.23,0,.07,0-.1,0s-.44,0-.67.06a11.58,11.58,0,0,1-2.12-.09,9.41,9.41,0,0,1-5.74-3A11.77,11.77,0,0,1,145,43.38a.63.63,0,0,0-1.21.33,10.93,10.93,0,0,0,11.28,8.78,10.12,10.12,0,0,0,1.35-.13.6.6,0,0,0,.44-.43,10.69,10.69,0,0,0-2.12-8.62,13.21,13.21,0,0,0-5-3.65,9.65,9.65,0,0,0-1.36-.5.62.62,0,0,0-.33,1.2Z"/><path class="cls-1" d="M124.2,30.23a1.77,1.77,0,1,1-1.46-1.74,1.79,1.79,0,0,1,1.46,1.74.5.5,0,0,0,1,0,2.81,2.81,0,0,0-1.82-2.6,2.76,2.76,0,1,0,1.82,2.6A.5.5,0,0,0,124.2,30.23Z"/><path class="cls-1" d="M136.17,30.23a1.77,1.77,0,1,1-1.47-1.74,1.79,1.79,0,0,1,1.47,1.74.5.5,0,0,0,1,0,2.84,2.84,0,0,0-1.82-2.6,2.77,2.77,0,0,0-3.06.82,2.76,2.76,0,1,0,4.88,1.78A.5.5,0,0,0,136.17,30.23Z"/><path class="cls-1" d="M127.68,31.8l-.39,3c-.05.44-.13.89-.17,1.33a.75.75,0,0,0,.48.69,2.08,2.08,0,0,0,1,.17,6.44,6.44,0,0,0,1.74-.32.5.5,0,0,0-.26-1,8,8,0,0,1-.81.21,3.09,3.09,0,0,1-.59.08,2.54,2.54,0,0,1-.39,0c-.11,0,.11,0,0,0h-.07l-.15,0s.11.06,0,0l-.06,0s.11.11,0,0,.08.12,0,.06.08.18.06.21,0-.07,0-.08l.41-3.18.14-1.11a.5.5,0,0,0-.5-.5.51.51,0,0,0-.5.5Z"/><path class="cls-1" d="M124,40.43a6.75,6.75,0,0,0,2.77,1.78,5.81,5.81,0,0,0,6-1.78.5.5,0,0,0-.71-.71,5.68,5.68,0,0,1-2.92,1.72,4.3,4.3,0,0,1-2.3-.25,5.73,5.73,0,0,1-2.18-1.47c-.43-.48-1.13.23-.7.71Z"/><path class="cls-2" d="M121.76,89.92l.2,0h0l.18,0a.64.64,0,0,0,.29-.16,1.13,1.13,0,0,0,.1-.13.44.44,0,0,0,.07-.24.39.39,0,0,0,0-.26s-.05-.11-.07-.17l.06.15h0l0,.16h0l0,.16h0l-.07.15h0l-.1.13h0l-.12.1h0l-.15.07h0l-.17,0h.13a.42.42,0,0,0,.24,0,.57.57,0,0,0,.33-.33.42.42,0,0,0,0-.24l0-.17a.57.57,0,0,0-.16-.27l-.13-.1a.56.56,0,0,0-.31-.09h-.12l-.17,0h0l-.16.07h0l-.13.1h0a1.13,1.13,0,0,0-.1.13h0a.57.57,0,0,0-.09.33h0s0,.16,0,.17h0a1,1,0,0,0,.06.16h0l-.06-.15h0l0-.17h0l0-.17h0l.07-.15h0l.09-.13h0l.13-.09h0l.15-.06h0l.17,0h-.07l.17,0h0a.7.7,0,0,0-.25,0,.49.49,0,0,0-.23.08.55.55,0,0,0-.18.16.53.53,0,0,0-.11.21l0,.17a.56.56,0,0,0,.09.31l.09.13a.61.61,0,0,0,.28.16Z"/><path class="cls-2" d="M121.18,89.61a.63.63,0,0,0,0-1.25.63.63,0,0,0,0,1.25Z"/><path class="cls-2" d="M135.36,89.51a97.4,97.4,0,0,0,7.89-9.44c3.53-4.78,6.85-10,8.55-15.76a18.44,18.44,0,0,0,.77-7.73c-.19-1.37-.55-2.76-1.86-3.46s-3.06-.52-4.58-.43c-.16,0,.09.12-.08.11s-.18-.1-.25-.11c-.23,0-.46-.17-.68-.23a6.31,6.31,0,0,0-2.37-.16,28.25,28.25,0,0,1-2.92.18,7.42,7.42,0,0,0-3.34.54,1.74,1.74,0,0,0-.47.38,1.23,1.23,0,1,1-.07.17c0,.11,0,.23-.06.34-1.37,6.41-5.67,12-10.22,16.54l1,.13a31,31,0,0,1-4.48-9.41,29.21,29.21,0,0,1-1-4.62c-.09-.72,0-1.4-.5-1.95-1.3-1.43-3.46-1.3-5.13-.73l.6.16a3,3,0,0,0-1.58-.92,5.66,5.66,0,0,0-1.79-.12c-.29,0,0,.12-.28.08a3.89,3.89,0,0,1-.53-.21c-1.29-.45-3.87-1.18-5.06-.25a6.75,6.75,0,0,0-1.61,2.53c-2.39,5.5-.38,11.9,2.19,16.94,3.32,6.49,8.18,12.16,13.24,17.35.56.57,1.45-.31.89-.89a78.35,78.35,0,0,1-11.77-14.78,30.86,30.86,0,0,1-4.1-10.36,14.51,14.51,0,0,1,.28-6.65,8.37,8.37,0,0,1,1.48-2.94c.56-.54.89-.36,1.82-.27s2.26.71,3.11.75,2.14-.27,2.83.62a.58.58,0,0,0,.61.16,4.14,4.14,0,0,1,3.31,0c.68.36.65.48.69,1.09a26.53,26.53,0,0,0,1.85,7.68,31.38,31.38,0,0,0,3.83,7.41.64.64,0,0,0,1,.13A41.89,41.89,0,0,0,135.47,59a19.11,19.11,0,0,0,1.71-5.3l-.31.54c1.08-.82,3.22-.57,4.5-.53.68,0,1.28-.2,2-.22a9.65,9.65,0,0,1,2.32.47,7.69,7.69,0,0,0,1.71-.17,6.77,6.77,0,0,1,1.74.11c1.47.28,2,1.25,2.2,2.62a14.94,14.94,0,0,1-.18,5.25c-1.5,7.65-6.43,14.62-11.22,20.59-1.73,2.15-3.53,4.24-5.43,6.24-.56.58.33,1.47.88.89Z"/><path class="cls-1" d="M137,91.37a46.81,46.81,0,0,1-5.7-6.48,20.78,20.78,0,0,0-1.37-2.16,1,1,0,0,0-1.72.12,4.08,4.08,0,0,0-.15,1.7c-.06,4.58-.19,9.16-.19,13.74a4,4,0,0,0,2.38,3.7,7.86,7.86,0,0,0,6.95.27c.74-.32.1-1.4-.63-1.08-2.57,1.12-7.47.46-7.44-3.1,0-1.87,0-3.74.07-5.62l.1-7a7.12,7.12,0,0,0,0-1.9.76.76,0,0,0,0-.15c-.47-.36-.08.63-.07.65a20.86,20.86,0,0,0,1.4,2.07,52.11,52.11,0,0,0,5.45,6.14c.58.56,1.47-.32.89-.89Z"/><path class="cls-1" d="M121,91.1a36.63,36.63,0,0,0,5.26-5.23A7.18,7.18,0,0,0,127.64,84c0-.08.19-.68-.1-.47,0,0,0,.21,0,.23a12.55,12.55,0,0,0,0,1.94L127.29,98a2.79,2.79,0,0,1-1.33,2.65,7.45,7.45,0,0,1-6.72.36c-.73-.34-1.36.74-.63,1.07a8.47,8.47,0,0,0,6.57.27c1.69-.61,3.16-1.63,3.33-3.56.14-1.57.07-3.19.1-4.77l.14-8.06c0-.75.05-1.51,0-2.26s-.73-1.69-1.63-1.12c-.4.26-.61.82-.87,1.21s-.65.9-1,1.34A31.71,31.71,0,0,1,123,87.58c-.92.92-1.88,1.81-2.88,2.63-.63.51.26,1.39.88.89Z"/></svg>