<?xml version="1.0" encoding="iso-8859-1"?>
<!-- Generator: Adobe Illustrator 19.1.0, SVG Export Plug-In . SVG Version: 6.00 Build 0)  -->
<svg xmlns="http://www.w3.org/2000/svg" width="24" height="21.668" viewBox="0 0 24 21.668">
  <g id="icon" transform="translate(0.001)">
    <path id="Path_496" data-name="Path 496" d="M21.468,0H5.949A2.433,2.433,0,0,0,3.507,2.415l-.1,13.665H.378a.394.394,0,0,0-.379.4v1.881a3.3,3.3,0,0,0,3.109,3.279v.023H16.177v-.025c.1,0,.156.025.223.025h.009a3.285,3.285,0,0,0,3.266-3.3V6.413h3.945A.4.4,0,0,0,24,6V2.553A2.549,2.549,0,0,0,21.468,0ZM3.279,20.891h0a2.519,2.519,0,0,1-2.5-2.525V16.858h12.34v1.5a3.29,3.29,0,0,0,.96,2.334,1.4,1.4,0,0,1,.2.2ZM18.9,18.365a2.51,2.51,0,0,1-2.489,2.525H16.4a2.525,2.525,0,0,1-2.507-2.531V16.485a.4.4,0,0,0-.389-.4H4.184l.1-13.663A1.656,1.656,0,0,1,5.949.777H19.634A2.652,2.652,0,0,0,18.9,2.564ZM23.222,2.56V5.636H19.675V2.563A1.8,1.8,0,0,1,21.457.777h.011a1.772,1.772,0,0,1,1.754,1.78Zm0,0" fill="#fff"/>
    <path id="Path_497" data-name="Path 497" d="M164.2,60.538l2,1.37a.383.383,0,0,0,.434,0l2-1.37a3.019,3.019,0,0,0,1.207-2.3V55.464a.38.38,0,0,0-.207-.349l-3.051-1.5a.382.382,0,0,0-.34,0l-3.045,1.5a.379.379,0,0,0-.207.349v2.776A3.019,3.019,0,0,0,164.2,60.538Zm-.43-4.836,2.648-1.306,2.648,1.31v2.53a2.24,2.24,0,0,1-.868,1.66l-1.784,1.22-1.777-1.22a2.239,2.239,0,0,1-.866-1.66Zm0,0" transform="translate(-155.078 -50.971)" fill="#fff"/>
    <path id="Path_498" data-name="Path 498" d="M202.436,118.339a.388.388,0,0,0,.275.117h0a.389.389,0,0,0,.275-.115l1.546-1.547a.389.389,0,1,0-.55-.55l-1.27,1.27-.508-.513a.389.389,0,1,0-.552.548Zm0,0" transform="translate(-191.75 -110.488)" fill="#fff"/>
    <path id="Path_499" data-name="Path 499" d="M142.717,248h-9.328a.389.389,0,0,0,0,.777h9.328a.389.389,0,0,0,0-.777Zm0,0" transform="translate(-126.539 -235.951)" fill="#fff"/>
    <path id="Path_500" data-name="Path 500" d="M142.717,285h-9.328a.389.389,0,1,0,0,.777h9.328a.389.389,0,1,0,0-.777Zm0,0" transform="translate(-126.539 -271.154)" fill="#fff"/>
  </g>
</svg>
