<?xml version="1.0" encoding="iso-8859-1"?>
<!-- Generator: Adobe Illustrator 19.1.0, SVG Export Plug-In . SVG Version: 6.00 Build 0)  -->
<svg xmlns="http://www.w3.org/2000/svg" width="24" height="18.8" viewBox="0 0 24 18.8">
  <g id="work-team" transform="translate(0 -5.2)">
    <g id="Group_736" data-name="Group 736" transform="translate(7.6 14)">
      <g id="Group_735" data-name="Group 735">
        <path id="Path_446" data-name="Path 446" d="M160.683,281.317l-1.2-1.2A.4.4,0,0,0,159.2,280h-5.6a.4.4,0,0,0-.283.117l-1.2,1.2a.4.4,0,0,0-.117.283v8a.4.4,0,0,0,.4.4h8a.4.4,0,0,0,.4-.4v-8A.4.4,0,0,0,160.683,281.317Zm-2.917-.517h1.269l-1.434,1.434-.634-.634Zm-.731,2-.517.517a.165.165,0,1,1-.234,0l-.517-.52.634-.634Zm-.4-2-.234.234-.234-.234Zm-1.6,0,.8.8-.634.634-1.434-1.434Zm-.184,8.4H152.8v-7.434l.4-.4,1.717,1.717.66.66Zm.807,0,.739-5.547a.361.361,0,0,0,0-.051.382.382,0,0,0,.008.076l1.1,5.522Zm4.343,0h-1.672l-1.094-5.468.648-.649,1.717-1.717.4.4Z" transform="translate(-152 -280)" fill="#fff"/>
      </g>
    </g>
    <g id="Group_738" data-name="Group 738" transform="translate(8.8 5.2)">
      <g id="Group_737" data-name="Group 737">
        <path id="Path_447" data-name="Path 447" d="M182,104h-3.6a2.4,2.4,0,0,0-2.4,2.4v2.4a3.2,3.2,0,0,0,6.4,0v-4.4A.4.4,0,0,0,182,104Zm-.4,4.8a2.4,2.4,0,1,1-4.8,0v-1.6H180a2.387,2.387,0,0,0,1.6-.616Zm-1.6-2.4h-3.2a1.6,1.6,0,0,1,1.6-1.6h3.2A1.6,1.6,0,0,1,180,106.4Z" transform="translate(-176 -104)" fill="#fff"/>
      </g>
    </g>
    <g id="Group_740" data-name="Group 740" transform="translate(17.6 15.6)">
      <g id="Group_739" data-name="Group 739">
        <path id="Path_448" data-name="Path 448" d="M358.283,313.317l-1.2-1.2A.4.4,0,0,0,356.8,312h-3.2a.4.4,0,0,0-.283.117l-1.2,1.2a.4.4,0,0,0-.117.283V320a.4.4,0,0,0,.4.4H358a.4.4,0,0,0,.4-.4v-6.4A.4.4,0,0,0,358.283,313.317ZM357.6,319.6h-2v-6h-.8v6h-2v-5.834l.8-.8.917.917.283-.283.283-.283-.517-.517h1.3l-.54.508.274.292.274.292.954-.9.772.772Z" transform="translate(-352 -312)" fill="#fff"/>
      </g>
    </g>
    <g id="Group_742" data-name="Group 742" transform="translate(18.407 8.8)">
      <g id="Group_741" data-name="Group 741">
        <path id="Path_449" data-name="Path 449" d="M370.929,176h-.787a2,2,0,0,0-2,1.993l-.006,2a2.4,2.4,0,0,0,2.388,2.4h.008a2.4,2.4,0,0,0,2.4-2.4v-2A2,2,0,0,0,370.929,176Zm-1.987,2a1.2,1.2,0,0,1,1.187-1.2,1.2,1.2,0,0,1-1.187,1.2ZM372.129,180a1.6,1.6,0,1,1-3.192,0v0l0-1.2a1.988,1.988,0,0,1,3.188,0Zm-1.2-3.2a1.2,1.2,0,0,1,1.2,1.2A1.2,1.2,0,0,1,370.929,176.8Z" transform="translate(-368.136 -176)" fill="#fff"/>
      </g>
    </g>
    <g id="Group_744" data-name="Group 744" transform="translate(0 15.6)">
      <g id="Group_743" data-name="Group 743">
        <path id="Path_450" data-name="Path 450" d="M6.283,313.317l-1.2-1.2A.4.4,0,0,0,4.8,312H1.6a.4.4,0,0,0-.283.117l-1.2,1.2A.4.4,0,0,0,0,313.6V320a.4.4,0,0,0,.4.4H6a.4.4,0,0,0,.4-.4v-6.4A.4.4,0,0,0,6.283,313.317ZM5.6,319.6h-2v-6H2.8v6H.8v-5.834l.8-.8.917.917L2.8,313.6l.283-.283-.517-.517h1.3l-.54.508.274.292.274.292.954-.9.772.772Z" transform="translate(0 -312)" fill="#fff"/>
      </g>
    </g>
    <g id="Group_746" data-name="Group 746" transform="translate(0.807 8.8)">
      <g id="Group_745" data-name="Group 745">
        <path id="Path_451" data-name="Path 451" d="M18.929,176h-.787a2,2,0,0,0-2,1.993l-.006,2a2.4,2.4,0,0,0,2.388,2.4h.008a2.4,2.4,0,0,0,2.4-2.4v-2A2,2,0,0,0,18.929,176Zm0,.8a1.2,1.2,0,0,1,1.126.8h-.726a1.2,1.2,0,0,1-1.126-.8Zm-1.6.323v.073a.394.394,0,0,1-.118.283.381.381,0,0,1-.188.1A1.2,1.2,0,0,1,17.329,177.123Zm2.8,2.881a1.6,1.6,0,0,1-3.192,0v0l.005-1.6a1.189,1.189,0,0,0,.834-.348,1.219,1.219,0,0,0,.167-.211,1.991,1.991,0,0,0,1.386.563h.8Z" transform="translate(-16.136 -176)" fill="#fff"/>
      </g>
    </g>
  </g>
</svg>
