<?xml version="1.0" encoding="iso-8859-1"?>
<!-- Generator: Adobe Illustrator 19.1.0, SVG Export Plug-In . SVG Version: 6.00 Build 0)  -->
<svg id="funds" xmlns="http://www.w3.org/2000/svg" width="24" height="21.492" viewBox="0 0 24 21.492">
  <path id="Path_489" data-name="Path 489" d="M18.349,32.132s0-.009,0-.013a.535.535,0,0,0-.013-.065h0a.54.54,0,0,0-.021-.06l-.007-.017c-.006-.014-.013-.028-.021-.042l-.01-.018-.005-.01c-.008-.013-.017-.025-.026-.037l0-.007a.528.528,0,0,0-.044-.049l-.009-.008a.548.548,0,0,0-.042-.036l-.011-.009a.551.551,0,0,0-.06-.039l-8-4.547,4.606-2.9L22.4,28.662,19.15,30.71a.543.543,0,1,0,.579.919L23.748,29.1a.543.543,0,0,0-.021-.932l-8.793-5a.543.543,0,0,0-.558.013L8.732,26.735l0,0L5.908,28.514l0,0L.256,32.073A.543.543,0,0,0,.277,33L9.07,38a.543.543,0,0,0,.558-.013l4.019-2.531a.543.543,0,1,0-.579-.919L9.324,36.9,1.6,32.509l4.606-2.9,8.235,4.681v6.2a.543.543,0,0,0,.832.459L18.1,39.17a.543.543,0,0,0,.254-.459V32.2s0-.006,0-.009S18.352,32.15,18.349,32.132Zm-2.82,7.374V33.974a.543.543,0,0,0-.275-.472l-8-4.55L9.032,27.83l7.722,4.389-.676.426a.543.543,0,1,0,.579.919l.611-.385v5.232Z" transform="translate(-0.002 -23.098)" fill="#fff"/>
  <path id="Path_490" data-name="Path 490" d="M352.248,155.225l-4.019,2.531a.543.543,0,1,0,.579.919l4.019-2.531a.543.543,0,0,0-.579-.919Z" transform="translate(-329.08 -147.972)" fill="#fff"/>
  <path id="Path_491" data-name="Path 491" d="M13.066,229.409l-3.744,2.358L.811,226.93a.543.543,0,1,0-.537.944l8.793,5a.543.543,0,0,0,.558-.013l4.019-2.531a.543.543,0,0,0-.579-.919Z" transform="translate(0 -215.795)" fill="#fff"/>
  <path id="Path_492" data-name="Path 492" d="M352.248,195.225l-4.019,2.531a.543.543,0,1,0,.579.919l4.019-2.531a.543.543,0,0,0-.579-.919Z" transform="translate(-329.08 -185.799)" fill="#fff"/>
  <path id="Path_493" data-name="Path 493" d="M13.066,269.409l-3.744,2.358L.811,266.93a.543.543,0,1,0-.537.944l8.793,5a.543.543,0,0,0,.558-.013l4.019-2.531a.543.543,0,0,0-.579-.919Z" transform="translate(0 -253.623)" fill="#fff"/>
  <path id="Path_494" data-name="Path 494" d="M352.248,235.225l-4.019,2.531a.543.543,0,1,0,.579.919l4.019-2.531a.543.543,0,0,0-.579-.919Z" transform="translate(-329.08 -223.628)" fill="#fff"/>
  <path id="Path_495" data-name="Path 495" d="M13.066,309.409l-3.744,2.358L.811,306.93a.543.543,0,1,0-.537.944l8.793,5a.543.543,0,0,0,.558-.013l4.019-2.531a.543.543,0,0,0-.579-.919Z" transform="translate(0 -291.451)" fill="#fff"/>
</svg>
