<?xml version="1.0" encoding="iso-8859-1"?>
<!-- Generator: Adobe Illustrator 19.1.0, SVG Export Plug-In . SVG Version: 6.00 Build 0)  -->
<svg xmlns="http://www.w3.org/2000/svg" width="22.497" height="24" viewBox="0 0 22.497 24">
  <g id="box" transform="translate(-16.032 0)">
    <g id="Group_792" data-name="Group 792" transform="translate(16.032 -0.001)">
      <g id="Group_791" data-name="Group 791" transform="translate(0 0)">
        <path id="Path_486" data-name="Path 486" d="M38.33,5.3,27.433.034a.352.352,0,0,0-.306,0L16.231,5.3a.352.352,0,0,0-.2.317V18.387a.352.352,0,0,0,.2.317l10.9,5.261a.352.352,0,0,0,.306,0L38.33,18.7a.352.352,0,0,0,.2-.317V5.612A.352.352,0,0,0,38.33,5.3ZM27.28.741l10.088,4.87L34.444,7.023a.349.349,0,0,0-.06-.037L24.365,2.149Zm-3.709,1.8L33.645,7.409l-2.063,1L21.512,3.544ZM33.88,8.076v3.682l-1.927.93V9.007Zm3.945,10.09L27.632,23.088V11.093l2.432-1.174a.352.352,0,0,0-.306-.633l-2.477,1.2-.975-.471a.352.352,0,1,0-.306.633l.929.448V23.088L16.735,18.167V6.172L24.5,9.919a.352.352,0,0,0,.306-.633L17.192,5.612l3.492-1.686,10.561,5.1,0,.006v4.219a.352.352,0,0,0,.5.317l2.63-1.27a.351.351,0,0,0,.2-.317V7.737l3.242-1.565V18.167Z" transform="translate(-16.032 0.001)" fill="#fff"/>
      </g>
    </g>
    <g id="Group_794" data-name="Group 794" transform="translate(17.533 15.996)">
      <g id="Group_793" data-name="Group 793" transform="translate(0)">
        <path id="Path_487" data-name="Path 487" d="M50.152,342.068l-1.6-.772a.352.352,0,1,0-.306.633l1.6.772a.352.352,0,0,0,.306-.633Z" transform="translate(-48.048 -341.261)" fill="#fff"/>
      </g>
    </g>
    <g id="Group_796" data-name="Group 796" transform="translate(17.535 14.329)">
      <g id="Group_795" data-name="Group 795" transform="translate(0)">
        <path id="Path_488" data-name="Path 488" d="M51.669,307.207,48.6,305.725a.352.352,0,0,0-.306.633l3.069,1.481a.352.352,0,0,0,.306-.633Z" transform="translate(-48.096 -305.69)" fill="#fff"/>
      </g>
    </g>
  </g>
</svg>
