<?xml version="1.0" encoding="iso-8859-1"?>
<!-- Generator: Adobe Illustrator 19.1.0, SVG Export Plug-In . SVG Version: 6.00 Build 0)  -->
<svg xmlns="http://www.w3.org/2000/svg" width="24" height="20.625" viewBox="0 0 24 20.625">
  <g id="pin" transform="translate(0 -36)">
    <g id="Group_748" data-name="Group 748" transform="translate(0 48.75)">
      <g id="Group_747" data-name="Group 747">
        <path id="Path_463" data-name="Path 463" d="M23.937,313.789l-3.75-5.625a.375.375,0,1,0-.624.416l3.361,5.042H1.076l3.361-5.042a.375.375,0,0,0-.624-.416L.063,313.79a.375.375,0,0,0,.312.583h23.25a.375.375,0,0,0,.312-.583Z" transform="translate(0 -307.997)" fill="#fff"/>
      </g>
    </g>
    <g id="Group_750" data-name="Group 750" transform="translate(0 54.375)">
      <g id="Group_749" data-name="Group 749">
        <path id="Path_464" data-name="Path 464" d="M23.625,428H.375a.375.375,0,0,0-.375.375v1.5a.375.375,0,0,0,.375.375h23.25a.375.375,0,0,0,.375-.375v-1.5A.375.375,0,0,0,23.625,428Zm-.375,1.5H.75v-.75h22.5Z" transform="translate(0 -428)" fill="#fff"/>
      </g>
    </g>
    <g id="Group_752" data-name="Group 752" transform="translate(3.318 50.25)">
      <g id="Group_751" data-name="Group 751">
        <path id="Path_465" data-name="Path 465" d="M73.3,340.029a.374.374,0,0,0-.5.177l-1.966,4.125a.375.375,0,1,0,.677.323l1.966-4.125A.375.375,0,0,0,73.3,340.029Z" transform="translate(-70.795 -339.992)" fill="#fff"/>
      </g>
    </g>
    <g id="Group_754" data-name="Group 754" transform="translate(7.175 50.625)">
      <g id="Group_753" data-name="Group 753">
        <path id="Path_466" data-name="Path 466" d="M154.081,348.018a.376.376,0,0,0-.464.257l-.538,1.875a.375.375,0,1,0,.721.206l.538-1.875A.375.375,0,0,0,154.081,348.018Z" transform="translate(-153.065 -348.003)" fill="#fff"/>
      </g>
    </g>
    <g id="Group_756" data-name="Group 756" transform="translate(19.216 52.874)">
      <g id="Group_755" data-name="Group 755">
        <path id="Path_467" data-name="Path 467" d="M411.368,397.7l-.715-1.5a.375.375,0,1,0-.677.323l.715,1.5a.375.375,0,0,0,.677-.323Z" transform="translate(-409.939 -395.984)" fill="#fff"/>
      </g>
    </g>
    <g id="Group_758" data-name="Group 758" transform="translate(17.25 48.75)">
      <g id="Group_757" data-name="Group 757">
        <path id="Path_468" data-name="Path 468" d="M369.966,310.837l-1.25-2.623a.375.375,0,1,0-.677.323l1.25,2.623a.375.375,0,0,0,.677-.323Z" transform="translate(-368.003 -308)" fill="#fff"/>
      </g>
    </g>
    <g id="Group_760" data-name="Group 760" transform="translate(15.537 50.625)">
      <g id="Group_759" data-name="Group 759">
        <path id="Path_469" data-name="Path 469" d="M332.737,350.149l-.538-1.875a.375.375,0,1,0-.721.206l.538,1.875a.375.375,0,1,0,.721-.206Z" transform="translate(-331.464 -348.003)" fill="#fff"/>
      </g>
    </g>
    <g id="Group_762" data-name="Group 762" transform="translate(2.75 50.25)">
      <g id="Group_761" data-name="Group 761">
        <path id="Path_470" data-name="Path 470" d="M61.574,340H59.039a.375.375,0,0,0,0,.75h2.535a.375.375,0,0,0,0-.75Z" transform="translate(-58.664 -340)" fill="#fff"/>
      </g>
    </g>
    <g id="Group_764" data-name="Group 764" transform="translate(19.216 52.875)">
      <g id="Group_763" data-name="Group 763">
        <path id="Path_471" data-name="Path 471" d="M413.36,396h-3.033a.375.375,0,0,0,0,.75h3.033a.375.375,0,0,0,0-.75Z" transform="translate(-409.952 -396)" fill="#fff"/>
      </g>
    </g>
    <g id="Group_766" data-name="Group 766" transform="translate(18.501 51.375)">
      <g id="Group_765" data-name="Group 765">
        <path id="Path_472" data-name="Path 472" d="M397.82,364h-2.749a.375.375,0,1,0,0,.75h2.749a.375.375,0,0,0,0-.75Z" transform="translate(-394.696 -364)" fill="#fff"/>
      </g>
    </g>
    <g id="Group_768" data-name="Group 768" transform="translate(7.712 50.625)">
      <g id="Group_767" data-name="Group 767">
        <path id="Path_473" data-name="Path 473" d="M168.066,348H164.9a.375.375,0,0,0,0,.75h3.163a.375.375,0,0,0,0-.75Z" transform="translate(-164.528 -348)" fill="#fff"/>
      </g>
    </g>
    <g id="Group_770" data-name="Group 770" transform="translate(12.41 50.625)">
      <g id="Group_769" data-name="Group 769">
        <path id="Path_474" data-name="Path 474" d="M268.247,348h-3.128a.375.375,0,0,0,0,.75h3.128a.375.375,0,0,0,0-.75Z" transform="translate(-264.744 -348)" fill="#fff"/>
      </g>
    </g>
    <g id="Group_772" data-name="Group 772" transform="translate(7.175 52.5)">
      <g id="Group_771" data-name="Group 771">
        <path id="Path_475" data-name="Path 475" d="M162.339,388h-8.9a.375.375,0,0,0,0,.75h8.9a.375.375,0,0,0,0-.75Z" transform="translate(-153.064 -388)" fill="#fff"/>
      </g>
    </g>
    <g id="Group_774" data-name="Group 774" transform="translate(6 36)">
      <g id="Group_773" data-name="Group 773">
        <path id="Path_476" data-name="Path 476" d="M134,36a6.007,6.007,0,0,0-6,6c0,4.935,5.518,9.826,5.753,10.032a.375.375,0,0,0,.494,0C134.482,51.826,140,46.935,140,42A6.007,6.007,0,0,0,134,36Zm0,15.24c-1.071-1.011-5.25-5.215-5.25-9.24a5.25,5.25,0,0,1,10.5,0C139.25,46.025,135.071,50.229,134,51.24Z" transform="translate(-128 -36)" fill="#fff"/>
      </g>
    </g>
    <g id="Group_776" data-name="Group 776" transform="translate(3.75 48.75)">
      <g id="Group_775" data-name="Group 775">
        <path id="Path_477" data-name="Path 477" d="M85.785,308h-5.41a.375.375,0,0,0,0,.75h5.41a.375.375,0,0,0,0-.75Z" transform="translate(-80 -308)" fill="#fff"/>
      </g>
    </g>
    <g id="Group_778" data-name="Group 778" transform="translate(14.089 48.75)">
      <g id="Group_777" data-name="Group 777">
        <path id="Path_478" data-name="Path 478" d="M306.361,308h-5.41a.375.375,0,1,0,0,.75h5.41a.375.375,0,0,0,0-.75Z" transform="translate(-300.576 -308)" fill="#fff"/>
      </g>
    </g>
    <g id="Group_780" data-name="Group 780" transform="translate(9.375 44.25)">
      <g id="Group_779" data-name="Group 779">
        <path id="Path_479" data-name="Path 479" d="M204.875,212h-4.5a.375.375,0,0,0,0,.75h4.5a.375.375,0,0,0,0-.75Z" transform="translate(-200 -212)" fill="#fff"/>
      </g>
    </g>
    <g id="Group_782" data-name="Group 782" transform="translate(9.75 39.75)">
      <g id="Group_781" data-name="Group 781">
        <path id="Path_480" data-name="Path 480" d="M208.375,116a.375.375,0,0,0-.375.375v4.5a.375.375,0,0,0,.75,0v-4.5A.375.375,0,0,0,208.375,116Z" transform="translate(-208 -116)" fill="#fff"/>
      </g>
    </g>
    <g id="Group_784" data-name="Group 784" transform="translate(13.5 41.089)">
      <g id="Group_783" data-name="Group 783">
        <path id="Path_481" data-name="Path 481" d="M288.375,144.568a.375.375,0,0,0-.375.375V148.1a.375.375,0,1,0,.75,0v-3.161A.375.375,0,0,0,288.375,144.568Z" transform="translate(-288 -144.568)" fill="#fff"/>
      </g>
    </g>
    <g id="Group_786" data-name="Group 786" transform="translate(9 39.75)">
      <g id="Group_785" data-name="Group 785">
        <path id="Path_482" data-name="Path 482" d="M195.31,116.158a.375.375,0,0,0-.523-.087l-2.625,1.875a.375.375,0,0,0,.436.611l2.625-1.875A.375.375,0,0,0,195.31,116.158Z" transform="translate(-192.005 -116.001)" fill="#fff"/>
      </g>
    </g>
    <g id="Group_788" data-name="Group 788" transform="translate(11.625 39.75)">
      <g id="Group_787" data-name="Group 787">
        <path id="Path_483" data-name="Path 483" d="M251.22,117.948l-2.625-1.875a.375.375,0,0,0-.436.611l2.625,1.875a.375.375,0,0,0,.436-.611Z" transform="translate(-248.001 -116.003)" fill="#fff"/>
      </g>
    </g>
    <g id="Group_790" data-name="Group 790" transform="translate(11.625 43.125)">
      <g id="Group_789" data-name="Group 789">
        <path id="Path_484" data-name="Path 484" d="M248.375,188a.375.375,0,0,0-.375.375V189.5a.375.375,0,0,0,.75,0v-1.125A.375.375,0,0,0,248.375,188Z" transform="translate(-248 -188)" fill="#fff"/>
      </g>
    </g>
  </g>
</svg>
