<?xml version="1.0" encoding="iso-8859-1"?>
<!-- Generator: Adobe Illustrator 19.1.0, SVG Export Plug-In . SVG Version: 6.00 Build 0)  -->
<svg xmlns="http://www.w3.org/2000/svg" width="24" height="22.121" viewBox="0 0 24 22.121">
  <g id="school" transform="translate(0 -20)">
    <path id="Path_419" data-name="Path 419" d="M23.648,41.417h-.775V31.6h.775a.352.352,0,0,0,.3-.541l-2.63-4.133a.352.352,0,0,0-.3-.163H14.024l-1.672-1.672V23.71h3.405a.352.352,0,0,0,.293-.548l-.621-.932.621-.932a.352.352,0,0,0-.293-.548H12.352v-.4a.352.352,0,0,0-.7,0v4.739L9.975,26.763H2.982a.352.352,0,0,0-.3.163L.055,31.059a.352.352,0,0,0,.3.541h.775v9.816H.352a.352.352,0,0,0,0,.7h23.3a.352.352,0,1,0,0-.7ZM20.824,27.468,23.006,30.9H18.157l-3.429-3.429ZM15.1,21.456l-.386.58a.352.352,0,0,0,0,.391l.386.58H12.352v-1.55ZM3.176,27.468h6.1L5.842,30.9H.994ZM1.832,31.6H5.988l.035,0,.015,0,.019,0,.017,0,.016,0,.016-.006.016-.006.015-.007.016-.008.014-.008.015-.009L6.2,31.53l.012-.009.026-.023L12,25.735,17.762,31.5l.026.023.012.009.015.011.015.009.014.008.016.008.015.007.016.006.017.006.016,0,.017,0,.019,0,.015,0,.035,0h4.157v9.816H14.606V36.509a1.1,1.1,0,0,0-1.1-1.1H10.5a1.1,1.1,0,0,0-1.1,1.1v4.908H1.832ZM13.9,36.908H10.1v-.4a.4.4,0,0,1,.4-.4H13.5a.4.4,0,0,1,.4.4Zm-3.8.7h1.55v3.8H10.1Zm2.254,0H13.9v3.8h-1.55Z" transform="translate(0)" fill="#fff"/>
    <path id="Path_420" data-name="Path 420" d="M202.607,217.213A2.607,2.607,0,1,0,200,214.607,2.61,2.61,0,0,0,202.607,217.213Zm0-4.509a1.9,1.9,0,1,1-1.9,1.9A1.9,1.9,0,0,1,202.607,212.7Z" transform="translate(-190.607 -182.982)" fill="#fff"/>
    <path id="Path_421" data-name="Path 421" d="M225.479,237.832a.352.352,0,0,0,.352-.352v-1.127a.352.352,0,1,0-.7,0v.775h-.775a.352.352,0,1,0,0,.7Z" transform="translate(-213.48 -205.855)" fill="#fff"/>
    <path id="Path_422" data-name="Path 422" d="M130.231,388h-1.879a.352.352,0,0,0-.352.352v2.254a.352.352,0,0,0,.352.352h1.879a.352.352,0,0,0,.352-.352v-2.254A.352.352,0,0,0,130.231,388Zm-.352.7v.423H128.7V388.7Zm-1.174,1.55v-.423h1.174v.423Z" transform="translate(-121.988 -350.716)" fill="#fff"/>
    <path id="Path_423" data-name="Path 423" d="M58.231,388H56.352a.352.352,0,0,0-.352.352v2.254a.352.352,0,0,0,.352.352h1.879a.352.352,0,0,0,.352-.352v-2.254A.352.352,0,0,0,58.231,388Zm-.352.7v.423H56.7V388.7Zm-1.174,1.55v-.423h1.174v.423Z" transform="translate(-53.37 -350.716)" fill="#fff"/>
    <path id="Path_424" data-name="Path 424" d="M130.113,292H128.47a.47.47,0,0,0-.47.47v2.513a.352.352,0,0,0,.352.352h1.879a.352.352,0,0,0,.352-.352V292.47A.47.47,0,0,0,130.113,292Zm-.235.7v.8H128.7v-.8ZM128.7,294.63v-.423h1.174v.423Z" transform="translate(-121.988 -259.225)" fill="#fff"/>
    <path id="Path_425" data-name="Path 425" d="M58.114,292H56.47a.47.47,0,0,0-.47.47v2.513a.352.352,0,0,0,.352.352h1.879a.352.352,0,0,0,.352-.352V292.47A.47.47,0,0,0,58.114,292Zm-.235.7v.8H56.7v-.8ZM56.7,294.63v-.423h1.174v.423Z" transform="translate(-53.37 -259.225)" fill="#fff"/>
    <path id="Path_426" data-name="Path 426" d="M400.352,390.959h1.879a.352.352,0,0,0,.352-.352v-2.254a.352.352,0,0,0-.352-.352h-1.879a.352.352,0,0,0-.352.352v2.254A.352.352,0,0,0,400.352,390.959Zm.352-.7v-.423h1.174v.423Zm1.174-1.55v.423H400.7V388.7Z" transform="translate(-381.214 -350.716)" fill="#fff"/>
    <path id="Path_427" data-name="Path 427" d="M328.352,390.959h1.879a.352.352,0,0,0,.352-.352v-2.254a.352.352,0,0,0-.352-.352h-1.879a.352.352,0,0,0-.352.352v2.254A.352.352,0,0,0,328.352,390.959Zm.352-.7v-.423h1.174v.423Zm1.174-1.55v.423H328.7V388.7Z" transform="translate(-312.595 -350.716)" fill="#fff"/>
    <path id="Path_428" data-name="Path 428" d="M400.352,295.335h1.879a.352.352,0,0,0,.352-.352V292.47a.47.47,0,0,0-.47-.47H400.47a.47.47,0,0,0-.47.47v2.513A.352.352,0,0,0,400.352,295.335Zm.352-.7v-.423h1.174v.423Zm1.174-1.926v.8H400.7v-.8Z" transform="translate(-381.214 -259.225)" fill="#fff"/>
    <path id="Path_429" data-name="Path 429" d="M328.352,295.335h1.879a.352.352,0,0,0,.352-.352V292.47a.47.47,0,0,0-.47-.47H328.47a.47.47,0,0,0-.47.47v2.513A.352.352,0,0,0,328.352,295.335Zm.352-.7v-.423h1.174v.423Zm1.174-1.926v.8H328.7v-.8Z" transform="translate(-312.595 -259.225)" fill="#fff"/>
  </g>
</svg>

