<svg xmlns="http://www.w3.org/2000/svg" width="20.996" height="25.037" viewBox="0 0 20.996 25.037"><defs><style>.a{fill:#375aa8;}</style></defs><g transform="translate(-0.001 0.001)"><g transform="translate(0)"><g transform="translate(0)"><path class="a" d="M86.393,4.331c.242.136,1.868.922,2.654,1.3,0,.305.01.833.02.842.087.755.235,1.595.278,1.832-.071.04-.439.28-.439,1.027v.012c0,.02,0,.039,0,.06.158,2.076.984,1.181,1.154,2.091a4.518,4.518,0,0,0,2.455,2.984,3.47,3.47,0,0,0,3,0,4.519,4.519,0,0,0,2.456-2.984c.17-.91,1-.015,1.154-2.091,0-.02,0-.04,0-.06V9.331c0-.747-.367-.987-.439-1.027.043-.237.192-1.076.278-1.832.01-.009.017-.536.02-.842.432-.208,1.117-.539,1.687-.817V6.822a.516.516,0,0,0-.052.874s-.229,1.287-.3,1.666,1.306.3,1.244,0-.3-1.666-.3-1.666a.517.517,0,0,0-.052-.874V4.552c.212-.105.371-.186.434-.221.171-.1.263-.219.244-.347.023-.133-.073-.277-.332-.4C99.7,2.676,94.993.372,94.528.15A.951.951,0,0,0,93.5.15c-.466.222-5.175,2.527-7.022,3.431-.259.127-.355.27-.332.4C86.13,4.112,86.222,4.235,86.393,4.331Z" transform="translate(-83.518)"/><path class="a" d="M54.218,296.035a23.16,23.16,0,0,1-2.641-1.356.454.454,0,0,0-.639.2c-.716,1.2-2.045,4.687-2.972,4.752l-.017,0-.017,0c-.927-.065-2.255-3.552-2.972-4.752a.454.454,0,0,0-.64-.2,23.159,23.159,0,0,1-2.641,1.356c-2.917,1.052-4.229,2.124-4.229,2.856v4.863H58.447V298.89C58.447,298.159,57.135,297.086,54.218,296.035Z" transform="translate(-37.452 -278.716)"/></g></g></g></svg>