<svg xmlns="http://www.w3.org/2000/svg" width="23.498" height="26.102" viewBox="0 0 23.498 26.102"><defs><style>.a{fill:#375aa8;}</style></defs><g transform="translate(-25.512)"><g transform="translate(31.431 4.981)"><g transform="translate(0)"><path class="a" d="M146.207,100.155a2.458,2.458,0,0,0-2.453-2.441h-1.02l-1.109,2.876,2.075.952v-1.4a.217.217,0,0,1,.434,0c0,.009,0,.018,0,.028l.019,7.482a1.037,1.037,0,0,0,2.073,0Z" transform="translate(-141.626 -97.714)"/></g></g><g transform="translate(28.015 13.519)"><g transform="translate(0)"><path class="a" d="M74.624,265.2v11.307a1.263,1.263,0,0,0,1.2,1.273,1.244,1.244,0,0,0,1.289-1.243V266.6h.46C77.507,266.574,74.624,265.2,74.624,265.2Z" transform="translate(-74.624 -265.204)"/></g></g><g transform="translate(31.04 12.221)"><path class="a" d="M136.434,239.742l-.933,2.033a1.276,1.276,0,0,1-1.532.686v9.916a1.244,1.244,0,0,0,2.488,0C136.457,252.206,136.434,239.913,136.434,239.742Z" transform="translate(-133.969 -239.742)"/></g><g transform="translate(30.034 4.995)"><g transform="translate(0)"><path class="a" d="M115.663,99.665l-.421-.766.374-.68a.152.152,0,0,0-.134-.226h-1.027a.152.152,0,0,0-.133.226l.375.681-.422.768a.431.431,0,0,0-.045.292l.144.723a1.387,1.387,0,0,1,1.155.129l.18-.85A.432.432,0,0,0,115.663,99.665Z" transform="translate(-114.22 -97.993)"/></g></g><g transform="translate(29.551 8.421)"><g transform="translate(0)"><path class="a" d="M108.51,166.386l-2.494-1.145a.463.463,0,0,0-.614.228l-.643,1.4,1.265.7a1.871,1.871,0,0,1,.1,3.211l.3.139a.463.463,0,0,0,.614-.228l1.7-3.693A.463.463,0,0,0,108.51,166.386Z" transform="translate(-104.759 -165.199)"/></g></g><g transform="translate(28.623 0)"><g transform="translate(0 0)"><circle class="a" cx="2.148" cy="2.148" r="2.148"/></g></g><g transform="translate(25.512 4.981)"><g transform="translate(0)"><path class="a" d="M30.411,104.254l-2.822-1.568c.005-.847.01-1.685.016-2.523a.206.206,0,0,1,.411,0v1.8l.825.458.616-1.343a1.277,1.277,0,0,1,.626-.626l-1.059-2.746h-1.04a2.458,2.458,0,0,0-2.453,2.439c0,.384-.017,2.756-.019,3.136a1.036,1.036,0,0,0,.533.912l3.359,1.866a1.036,1.036,0,1,0,1.007-1.812Z" transform="translate(-25.512 -97.712)"/></g></g><g transform="translate(38.944 9.179)"><path class="a" d="M291.655,180.585a.3.3,0,0,0-.375-.194l-1.13.359-.182-.574a.159.159,0,0,0-.283-.042l-.671.977,1.144,3.6a.191.191,0,0,0,.24.125l.479-.152a1.432,1.432,0,0,1,1.438-2.021Z" transform="translate(-289.014 -180.065)"/></g><g transform="translate(41.379 11.196)"><g transform="translate(0)"><path class="a" d="M343.245,219.636h-1.982a1.152,1.152,0,0,0-1.111,1.189v.343l2.273-.812-2.3,1.567-2.344-.952a.731.731,0,1,0-.55,1.355l2.707,1.1a.737.737,0,0,0,.687-.073l2.538-1.73-2.02,2.2a1.354,1.354,0,0,1-.992.353s-.022-.071-.022,9.434a.925.925,0,0,0,1.314.841,1.639,1.639,0,0,1-.231-.841v-6.689h.721v6.689a.926.926,0,1,0,1.853,0v-6.748a.887.887,0,0,0,.571-.828v-5.212A1.152,1.152,0,0,0,343.245,219.636Z" transform="translate(-336.776 -219.636)"/></g></g><g transform="translate(44.686 6.351)"><circle class="a" cx="2.162" cy="2.162" r="2.162"/></g></g></svg>