<?xml version="1.0" encoding="iso-8859-1"?>
<!-- Generator: Adobe Illustrator 19.1.0, SVG Export Plug-In . SVG Version: 6.00 Build 0)  -->
<svg id="presentation" xmlns="http://www.w3.org/2000/svg" width="24" height="24" viewBox="0 0 24 24">
  <g id="Group_704" data-name="Group 704" transform="translate(2 4.4)">
    <g id="Group_703" data-name="Group 703">
      <path id="Path_430" data-name="Path 430" d="M44.176,88.725A2.381,2.381,0,0,0,42.459,88h-.123a2.381,2.381,0,0,0-1.716.725A2.2,2.2,0,0,0,40,90.356l.047,1.077A2.3,2.3,0,0,0,42.382,93.6h.03a2.3,2.3,0,0,0,2.336-2.167l.049-1.077A2.2,2.2,0,0,0,44.176,88.725ZM43.949,91.4a1.5,1.5,0,0,1-1.537,1.4h-.03a1.5,1.5,0,0,1-1.537-1.4l-.014-.327a3.61,3.61,0,0,0,2.091-.785,1.786,1.786,0,0,0,1.043.732Zm-.5-1.891a.4.4,0,0,0-.745-.149,2.457,2.457,0,0,1-1.9.914,1.411,1.411,0,0,1,.4-.994,1.581,1.581,0,0,1,1.138-.48h.123a1.581,1.581,0,0,1,1.138.48,1.41,1.41,0,0,1,.39.9A.946.946,0,0,1,43.448,89.509Z" transform="translate(-39.997 -88)" fill="#fff"/>
    </g>
  </g>
  <g id="Group_706" data-name="Group 706" transform="translate(17.6 14)">
    <g id="Group_705" data-name="Group 705">
      <path id="Path_431" data-name="Path 431" d="M356.176,280.725a2.381,2.381,0,0,0-1.718-.725h-.123a2.381,2.381,0,0,0-1.716.725,2.2,2.2,0,0,0-.621,1.631l.047,1.077a2.3,2.3,0,0,0,2.336,2.167h.03a2.3,2.3,0,0,0,2.336-2.167l.049-1.077A2.2,2.2,0,0,0,356.176,280.725Zm-.179,1.6-.048,1.076a1.5,1.5,0,0,1-1.537,1.4h-.03a1.5,1.5,0,0,1-1.537-1.4l-.048-1.078a1.412,1.412,0,0,1,.4-1.042,1.581,1.581,0,0,1,1.138-.48h.123a1.581,1.581,0,0,1,1.138.48A1.412,1.412,0,0,1,356,282.324Z" transform="translate(-351.997 -280)" fill="#fff"/>
    </g>
  </g>
  <g id="Group_708" data-name="Group 708" transform="translate(0 5.506)">
    <g id="Group_707" data-name="Group 707">
      <path id="Path_432" data-name="Path 432" d="M12.357,110.428a1.107,1.107,0,0,0-1.539,0l-4.466,4.466a.4.4,0,0,1-.283.117H2a2,2,0,0,0-2,2v5.6a1.2,1.2,0,0,0,1.6,1.132v.468a.4.4,0,0,0,.4.4H6.8a.4.4,0,0,0,.4-.4v-6.486a.4.4,0,0,1,.107-.273l5.076-5.459A1.107,1.107,0,0,0,12.357,110.428Zm-.545,1.006,0,0-5.087,5.47a1.2,1.2,0,0,0-.32.817v6.086h-4v-6a.4.4,0,0,0-.8,0v4.8a.4.4,0,0,1-.8,0v-5.6a1.2,1.2,0,0,1,1.2-1.2H6.068a1.191,1.191,0,0,0,.849-.352l4.466-4.466a.316.316,0,0,1,.434,0A.312.312,0,0,1,11.812,111.434Z" transform="translate(0 -110.117)" fill="#fff"/>
    </g>
  </g>
  <g id="Group_710" data-name="Group 710" transform="translate(4 11.6)">
    <g id="Group_709" data-name="Group 709">
      <path id="Path_433" data-name="Path 433" d="M80.4,232a.4.4,0,0,0-.4.4v4.8a.4.4,0,0,0,.8,0v-4.8A.4.4,0,0,0,80.4,232Z" transform="translate(-80 -232)" fill="#fff"/>
    </g>
  </g>
  <g id="Group_712" data-name="Group 712" transform="translate(8.8 14)">
    <g id="Group_711" data-name="Group 711">
      <path id="Path_434" data-name="Path 434" d="M180.174,280.725a2.38,2.38,0,0,0-1.716-.725h-.123a2.38,2.38,0,0,0-1.716.725,2.2,2.2,0,0,0-.621,1.631l.047,1.077a2.3,2.3,0,0,0,2.336,2.167h.03a2.3,2.3,0,0,0,2.336-2.167l.047-1.077A2.2,2.2,0,0,0,180.174,280.725Zm-.177,1.6-.048,1.076a1.5,1.5,0,0,1-1.537,1.4h-.03a1.5,1.5,0,0,1-1.537-1.4l-.048-1.078a1.412,1.412,0,0,1,.4-1.042,1.581,1.581,0,0,1,1.138-.48h.123a1.581,1.581,0,0,1,1.138.48A1.412,1.412,0,0,1,180,282.324Z" transform="translate(-175.997 -280)" fill="#fff"/>
    </g>
  </g>
  <g id="Group_714" data-name="Group 714" transform="translate(7.2 20)">
    <g id="Group_713" data-name="Group 713">
      <path id="Path_435" data-name="Path 435" d="M150.067,400h-4.134A1.935,1.935,0,0,0,144,401.933V403.6a.4.4,0,1,0,.8,0v-1.667a1.134,1.134,0,0,1,1.133-1.133h4.134a1.134,1.134,0,0,1,1.133,1.133V403.6a.4.4,0,1,0,.8,0v-1.667A1.935,1.935,0,0,0,150.067,400Z" transform="translate(-144 -400)" fill="#fff"/>
    </g>
  </g>
  <g id="Group_716" data-name="Group 716" transform="translate(16 20)">
    <g id="Group_715" data-name="Group 715">
      <path id="Path_436" data-name="Path 436" d="M326.067,400h-4.134A1.935,1.935,0,0,0,320,401.933V403.6a.4.4,0,1,0,.8,0v-1.667a1.134,1.134,0,0,1,1.133-1.133h4.134a1.134,1.134,0,0,1,1.133,1.133V403.6a.4.4,0,1,0,.8,0v-1.667A1.935,1.935,0,0,0,326.067,400Z" transform="translate(-320 -400)" fill="#fff"/>
    </g>
  </g>
  <g id="Group_718" data-name="Group 718" transform="translate(7.6)">
    <g id="Group_717" data-name="Group 717">
      <path id="Path_437" data-name="Path 437" d="M167.219,0h-14.04A1.192,1.192,0,0,0,152,1.2v6a.4.4,0,0,0,.8,0V2.4h14.8V12a.391.391,0,0,1-.38.4h-13.65a.4.4,0,0,0,0,.8h13.65A1.192,1.192,0,0,0,168.4,12V1.2A1.192,1.192,0,0,0,167.219,0Zm.38,1.6H152.8V1.2a.391.391,0,0,1,.38-.4h14.04a.391.391,0,0,1,.38.4Z" transform="translate(-151.999)" fill="#fff"/>
    </g>
  </g>
  <g id="Group_720" data-name="Group 720" transform="translate(21.6 5.1)">
    <g id="Group_719" data-name="Group 719">
      <path id="Path_438" data-name="Path 438" d="M432.4,102a.4.4,0,0,0-.4.4v5.7a.4.4,0,0,0,.8,0v-5.7A.4.4,0,0,0,432.4,102Z" transform="translate(-432 -102)" fill="#fff"/>
    </g>
  </g>
  <g id="Group_722" data-name="Group 722" transform="translate(20 7.6)">
    <g id="Group_721" data-name="Group 721">
      <path id="Path_439" data-name="Path 439" d="M400.4,152a.4.4,0,0,0-.4.4v3.2a.4.4,0,1,0,.8,0v-3.2A.4.4,0,0,0,400.4,152Z" transform="translate(-400 -152)" fill="#fff"/>
    </g>
  </g>
  <g id="Group_724" data-name="Group 724" transform="translate(18.4 6.8)">
    <g id="Group_723" data-name="Group 723">
      <path id="Path_440" data-name="Path 440" d="M368.4,136a.4.4,0,0,0-.4.4v4a.4.4,0,1,0,.8,0v-4A.4.4,0,0,0,368.4,136Z" transform="translate(-368 -136)" fill="#fff"/>
    </g>
  </g>
  <g id="Group_726" data-name="Group 726" transform="translate(16.8 9.2)">
    <g id="Group_725" data-name="Group 725">
      <path id="Path_441" data-name="Path 441" d="M336.4,184a.4.4,0,0,0-.4.4V186a.4.4,0,1,0,.8,0v-1.6A.4.4,0,0,0,336.4,184Z" transform="translate(-336 -184)" fill="#fff"/>
    </g>
  </g>
  <g id="Group_728" data-name="Group 728" transform="translate(15.2 3.2)">
    <g id="Group_727" data-name="Group 727">
      <path id="Path_442" data-name="Path 442" d="M311.021,64.066a.4.4,0,0,0-.555.111L309.1,66.224l-1.262-.946a.4.4,0,0,0-.6.141l-1.558,3.116-1.522,1.143a.4.4,0,1,0,.48.64l1.6-1.2a.4.4,0,0,0,.12-.141l1.385-2.771,1.215.912a.4.4,0,0,0,.56-.08l.013-.018,1.6-2.4A.4.4,0,0,0,311.021,64.066Z" transform="translate(-303.999 -63.998)" fill="#fff"/>
    </g>
  </g>
  <g id="Group_730" data-name="Group 730" transform="translate(9.2 3.2)">
    <g id="Group_729" data-name="Group 729">
      <path id="Path_443" data-name="Path 443" d="M189.2,64h-4.8a.4.4,0,0,0,0,.8h4.8a.4.4,0,1,0,0-.8Z" transform="translate(-184 -64)" fill="#fff"/>
    </g>
  </g>
  <g id="Group_732" data-name="Group 732" transform="translate(15.6 3.2)">
    <g id="Group_731" data-name="Group 731">
      <path id="Path_444" data-name="Path 444" d="M313.2,64h-.8a.4.4,0,0,0,0,.8h.8a.4.4,0,0,0,0-.8Z" transform="translate(-312 -64)" fill="#fff"/>
    </g>
  </g>
</svg>
